<?xml version="1.0" standalone="no"?>
<!DOCTYPE svg PUBLIC "-//W3C//DTD SVG 1.1//EN" "http://www.w3.org/Graphics/SVG/1.1/DTD/svg11.dtd" >
<svg>
<metadata>
Created by FontForge 20090914 at Fri May  8 04:37:54 2015
 By www-data
2003 Erik Spiekermann, Christian Schwartz; published by FontShop International for the FontFont library.
</metadata>
<defs>
<font id="Unit-Thin" horiz-adv-x="453" >
  <font-face 
    font-family="Unit-Thin"
    font-weight="400"
    font-stretch="normal"
    units-per-em="1000"
    panose-1="2 11 5 0 0 0 0 0 0 0"
    ascent="800"
    descent="-200"
    x-height="459"
    cap-height="685"
    bbox="-2 -213 1087 904.001"
    underline-thickness="20"
    underline-position="-122"
    unicode-range="U+0020-U+2122"
  />
<missing-glyph horiz-adv-x="502" 
d="M-1 0h500v500h-500v-500zM9 10v480h480v-480h-480z" />
    <glyph glyph-name=".notdef" horiz-adv-x="502" 
d="M-1 0h500v500h-500v-500zM9 10v480h480v-480h-480z" />
    <glyph glyph-name="space" unicode=" " horiz-adv-x="230" 
 />
    <glyph glyph-name="exclam" unicode="!" horiz-adv-x="228" 
d="M98 167h32l5 518h-42zM114 -6c10.667 0 19.834 3.83301 27.501 11.5s11.5 16.834 11.5 27.501s-3.83301 20 -11.5 28s-16.834 12 -27.501 12s-19.834 -4 -27.501 -12s-11.5 -17.333 -11.5 -28s3.83301 -19.834 11.5 -27.501s16.834 -11.5 27.501 -11.5z" />
    <glyph glyph-name="quotedbl" unicode="&#x22;" horiz-adv-x="333" 
d="M211 481h37v229h-37v-229zM85 481h37v229h-37v-229z" />
    <glyph glyph-name="numbersign" unicode="#" horiz-adv-x="533" 
d="M170 418l-30 -193h-103v-33h98l-29 -192h36l29 192h152l-29 -192h36l29 192h107v33h-102l30 193h102v33h-97l28 184h-36l-28 -184h-152l28 184h-36l-28 -184h-108v-33h103zM358 418l-30 -193h-152l30 193h152z" />
    <glyph glyph-name="dollar" unicode="$" horiz-adv-x="487" 
d="M236 642c-44.667 -2 -81.1631 -16.334 -109.496 -43.001s-42.5 -61.667 -42.5 -105c0 -24 4.16699 -45.333 12.5 -64s19.666 -34.667 33.999 -48s30.166 -24.666 47.499 -33.999s36.666 -18.333 57.999 -27v-295c-36 0.666992 -67.333 7.5 -94 20.5s-50 31.167 -70 54.5
l-27 -25c22 -24.667 48.833 -44.334 80.5 -59.001s68.5 -22.667 110.5 -24v-95h34v96c56 4 97.333 21.333 124 52s40 68.667 40 114c0 25.333 -4 47.5 -12 66.5s-19.667 35.833 -35 50.5c-23.333 23.333 -62.333 46 -117 68v263c42 -3.33301 80.667 -17.666 116 -42.999
l19 29c-20.667 14 -41.334 24.833 -62.001 32.5s-45 12.5 -73 14.5v102h-34v-101zM270.004 26.999v280c42 -17.333 73.167 -37 93.5 -59s30.5 -51.667 30.5 -89c0 -38 -10.167 -68.5 -30.5 -91.5s-51.5 -36.5 -93.5 -40.5zM236.004 608.999v-251
c-38 16.667 -66.333 34.834 -85 54.501s-28 47.167 -28 82.5s10.167 62.666 30.5 81.999s47.833 30 82.5 32z" />
    <glyph glyph-name="percent" unicode="%" horiz-adv-x="787" 
d="M198 299c44 0 78.667 15.333 104 46s38 71.667 38 123c0 54.667 -13.333 97.334 -40 128.001s-62 46 -106 46c-43.333 0 -77.833 -15.333 -103.5 -46s-38.5 -72.334 -38.5 -125.001s13 -94.5 39 -125.5s61.667 -46.5 107 -46.5zM593 -7c44 0 78.667 15.333 104 46
s38 71.667 38 123c0 54.667 -13.333 97.334 -40 128.001s-62 46 -106 46c-43.333 0 -77.833 -15.333 -103.5 -46s-38.5 -72.334 -38.5 -125.001s13 -94.5 39 -125.5s61.667 -46.5 107 -46.5zM591 25c-70 0 -105 47.667 -105 143c0 90.667 34.667 136 104 136
c70.667 0 106 -48.333 106 -145c0 -89.333 -35 -134 -105 -134zM196 331c-70 0 -105 47.667 -105 143c0 90.667 34.667 136 104 136c70.667 0 106 -48.333 106 -145c0 -89.333 -35 -134 -105 -134zM184 0h41l378 635h-41z" />
    <glyph glyph-name="ampersand" unicode="&#x26;" horiz-adv-x="619" 
d="M452 171l-184.001 213.998c91.333 46.667 137 104.334 137 173.001c0 42.667 -12.667 75.667 -38 99s-57.666 35 -96.999 35c-43.333 0 -78 -12.167 -104 -36.5s-39 -55.166 -39 -92.499c0 -26.667 6.5 -52.167 19.5 -76.5s33.167 -52.5 60.5 -84.5l9 -11
c-50 -26 -88.167 -56 -114.5 -90s-39.5 -76 -39.5 -126c0 -24.667 3.16699 -47.834 9.5 -69.501s16.833 -41.5 31.5 -59.5s34.667 -32.333 60 -43s56 -16 92 -16c84 0 152 40.667 204 122l93 -109h47l-122 142c29.333 58.667 50 132.334 62 221.001l-36 2
c-11.333 -78 -28.333 -142.667 -51 -194zM235.999 367.998l199 -231.998c-43.333 -77.333 -103.333 -116 -180 -116c-28 0 -52 4.16699 -72 12.5s-35.833 19.666 -47.5 33.999s-20 30.666 -25 48.999s-7.5 37.5 -7.5 57.5c0 44.667 11 82 33 112s55.333 57.667 100 83z
M247.999 408l-16.001 18.999c-22.667 25.333 -39.167 48.333 -49.5 69s-15.5 43.334 -15.5 68.001c0 27.333 9.33301 50 28 68s43.667 27 75 27c63.333 0 95 -34.333 95 -103c0 -30 -9.16699 -56.667 -27.5 -80s-48.166 -46 -89.499 -68z" />
    <glyph glyph-name="quotesingle" unicode="'" horiz-adv-x="207" 
d="M85 481h37v229h-37v-229z" />
    <glyph glyph-name="parenleft" unicode="(" horiz-adv-x="306" 
d="M252 -149l15.998 26.001c-56 36.667 -96.5 88.5 -121.5 155.5s-37.5 159.5 -37.5 277.5c0 118.667 12.333 211.167 37 277.5s65.334 117.833 122.001 154.5l-16 26c-61.333 -36 -107.666 -90 -138.999 -162s-47 -170 -47 -294c0 -124.667 16 -223.834 48 -297.501
s78 -128.167 138 -163.5z" />
    <glyph glyph-name="parenright" unicode=")" horiz-adv-x="306" 
d="M54 -149c61.333 36 107.668 89.999 139.001 161.999s47 170 47 294c0 124.667 -16 223.834 -48 297.501s-78 128.167 -138 163.5l-16 -26c56 -36.667 96.5 -88.5 121.5 -155.5s37.5 -159.5 37.5 -277.5c0 -118.667 -12.333 -211.167 -37 -277.5
s-65.334 -117.833 -122.001 -154.5z" />
    <glyph glyph-name="asterisk" unicode="*" horiz-adv-x="414" 
d="M123 381l84 115l84 -115l25 18l-82 113l127 47l-11 29l-126 -46v143h-34v-143l-126 46l-11 -29l127 -47l-82 -113z" />
    <glyph glyph-name="plus" unicode="+" horiz-adv-x="504" 
d="M233 90h38v177h160v33h-160v178h-38v-178h-160v-33h160v-177z" />
    <glyph glyph-name="comma" unicode="," horiz-adv-x="212" 
d="M74 -88c24.667 7.33301 43 20.335 55 39.002s18 41 18 67c0 17.333 -4 30.666 -12 39.999s-17.667 14 -29 14c-10.667 0 -19.834 -3.83301 -27.501 -11.5s-11.5 -16.834 -11.5 -27.501c0 -11.333 3.83301 -20.666 11.5 -27.999s17.834 -11 30.501 -11
c-0.666992 -12.667 -5.16699 -24.334 -13.5 -35.001s-18.833 -19 -31.5 -25z" />
    <glyph glyph-name="hyphen" unicode="-" horiz-adv-x="284" 
d="M58 249h168v35h-168v-35z" />
    <glyph glyph-name="period" unicode="." horiz-adv-x="212" 
d="M106 -6c10.667 0 19.834 3.83301 27.501 11.5s11.5 16.834 11.5 27.501s-3.83301 19.834 -11.5 27.501s-16.834 11.5 -27.501 11.5s-19.834 -3.83301 -27.501 -11.5s-11.5 -16.834 -11.5 -27.501s3.83301 -19.834 11.5 -27.501s16.834 -11.5 27.501 -11.5z" />
    <glyph glyph-name="slash" unicode="/" horiz-adv-x="335" 
d="M20 -144h38l257 901h-38z" />
    <glyph glyph-name="zero" unicode="0" horiz-adv-x="580" 
d="M292 -7c76.667 0 132.833 27.332 168.5 81.999s53.5 135.334 53.5 242.001c0 102.667 -19 182.5 -57 239.5s-93.667 85.5 -167 85.5c-72.667 0 -128.167 -28.833 -166.5 -86.5s-57.5 -138.167 -57.5 -241.5c0 -104 18.5 -183.5 55.5 -238.5s93.833 -82.5 170.5 -82.5z
M290.999 25.999c-64.667 0 -111.501 24.668 -140.501 74.001s-43.5 121.333 -43.5 216c0 93.333 15 165.5 45 216.5s76 76.5 138 76.5c62.667 0 108.834 -25.833 138.501 -77.5s44.5 -124.834 44.5 -219.501c0 -93.333 -14.333 -164.333 -43 -213s-75 -73 -139 -73z" />
    <glyph glyph-name="one" unicode="1" horiz-adv-x="419" 
d="M67 0h304v33h-128v606h-33l-148 -101l13 -23l128 72v-554h-136v-33z" />
    <glyph glyph-name="two" unicode="2" horiz-adv-x="459" 
d="M48 0l354.999 0.00292969v33h-311c59.333 51.333 108.5 97.333 147.5 138s69.333 77.334 91 110.001s37 63.167 46 91.5s13.5 57.5 13.5 87.5c0 60 -16.333 105.333 -49 136s-75 46 -127 46c-30 0 -57 -3.83301 -81 -11.5s-50 -19.834 -78 -36.501l16 -28
c27.333 16 51.166 27.167 71.499 33.5s44.5 9.5 72.5 9.5c44 0 77.333 -12 100 -36s34 -61.333 34 -112c0 -27.333 -3.66699 -53.833 -11 -79.5s-21.166 -54.334 -41.499 -86.001s-50.666 -68.834 -90.999 -111.501s-92.833 -92.334 -157.5 -149.001v-35z" />
    <glyph glyph-name="three" unicode="3" horiz-adv-x="482" 
d="M205 -65c64 0 115.164 17.666 153.497 52.999s57.5 83.333 57.5 144c0 56.667 -12.333 99.5 -37 128.5s-58 48.5 -100 58.5c33.333 11.333 59.666 29.833 78.999 55.5s29 59.834 29 102.501c0 46.667 -15.167 85.834 -45.5 117.501s-72.833 47.5 -127.5 47.5
c-34 0 -63.167 -4.16699 -87.5 -12.5s-51.5 -21.5 -81.5 -39.5l16 -27c26 15.333 50.833 26.833 74.5 34.5s49.5 11.5 77.5 11.5c43.333 0 76.5 -12 99.5 -36s34.5 -57.333 34.5 -100c0 -44 -12.667 -78.667 -38 -104s-61.666 -38 -108.999 -38h-48v-33h57
c24 0 45.833 -2.83301 65.5 -8.5s37 -14.834 52 -27.501s26.833 -30 35.5 -52s13 -48.333 13 -79c0 -53.333 -14.667 -93.833 -44 -121.5s-71.666 -41.5 -126.999 -41.5c-34 0 -64.167 3.33301 -90.5 10s-51.166 15.667 -74.499 27l-14 -27c26 -14 53.333 -24.667 82 -32
s61.334 -11 98.001 -11z" />
    <glyph glyph-name="four" unicode="4" horiz-adv-x="525" 
d="M363 108v-166h40v166h81v33h-81v310l-40 -9v-301h-281l225 494h-40l-223 -490v-37h319z" />
    <glyph glyph-name="five" unicode="5" horiz-adv-x="482" 
d="M207 -65c68 0 120.834 20.832 158.501 62.499s56.5 96.5 56.5 164.5c0 66.667 -19.667 119.334 -59 158.001s-93 58 -161 58c-14 0 -28.833 -1 -44.5 -3s-28.167 -4.33301 -37.5 -7l24 234h267v33h-300l-31 -310c18.667 6 38.667 10.833 60 14.5s42 5.5 62 5.5
c55.333 0 99 -15.5 131 -46.5s48 -76.833 48 -137.5s-14.333 -108 -43 -142s-72.667 -51 -132 -51c-28 0 -55 3.33301 -81 10s-50 15.667 -72 27l-15 -30c51.333 -26.667 107.666 -40 168.999 -40z" />
    <glyph glyph-name="six" unicode="6" horiz-adv-x="542" 
d="M112 343c9.33301 95.333 37.833 166.833 85.5 214.5s116.834 80.5 207.501 98.5l-8 33c-52.667 -10 -99 -24.833 -139 -44.5s-74.167 -45.667 -102.5 -78s-50 -72.666 -65 -120.999s-22.5 -105.833 -22.5 -172.5c0 -90.667 20.167 -160 60.5 -208s92.166 -72 155.499 -72
c59.333 0 106.5 18.5 141.5 55.5s52.5 90.5 52.5 160.5c0 65.333 -19 116 -57 152s-83.667 54 -137 54c-36 0 -68 -6.83301 -96 -20.5s-53.333 -30.834 -76 -51.501zM110 309c26 22.667 52.5 40.5 79.5 53.5s56.833 19.5 89.5 19.5c48 0 86.333 -15 115 -45
s43 -73.333 43 -130c0 -58 -13 -102.667 -39 -134s-64 -47 -114 -47c-54 0 -96.667 20.5 -128 61.5s-47 102.5 -47 184.5c0 16.667 0.333008 29 1 37z" />
    <glyph glyph-name="seven" unicode="7" horiz-adv-x="468" 
d="M177 -60c10.667 140.667 36.5 264.498 77.5 371.498s96.5 202.5 166.5 286.5v37h-379v-33h341c-66.667 -79.333 -121.5 -172.666 -164.5 -279.999s-70.833 -233.666 -83.5 -378.999z" />
    <glyph glyph-name="eight" unicode="8" horiz-adv-x="531" 
d="M219 362c-51.333 -20.667 -90.8311 -45.499 -118.498 -74.499s-41.5 -67.5 -41.5 -115.5c0 -56.667 19.5 -100.667 58.5 -132s89.167 -47 150.5 -47c60 0 109 16.167 147 48.5s57 75.833 57 130.5c0 42 -11.833 77 -35.5 105s-65.167 55 -124.5 81l-6 2
c47.333 22.667 81.666 48.667 102.999 78s32 62 32 98c0 45.333 -16.167 82.666 -48.5 111.999s-75.5 44 -129.5 44c-54.667 0 -97.667 -14.5 -129 -43.5s-47 -66.833 -47 -113.5c0 -36.667 10.167 -69.5 30.5 -98.5s54.166 -53.833 101.499 -74.5zM254.002 347.001
l51.999 -22.999c46.667 -20.667 79.334 -42.834 98.001 -66.501s28 -54.167 28 -91.5c0 -43.333 -15 -77.5 -45 -102.5s-69.667 -37.5 -119 -37.5c-52 0 -93.167 12.333 -123.5 37s-45.5 61 -45.5 109c0 42 12.5 76.167 37.5 102.5s64.167 50.5 117.5 72.5zM272.001 376.002
l-32.001 14c-42 19.333 -71.333 40.333 -88 63s-25 51 -25 85c0 37.333 12.333 66.833 37 88.5s57.667 32.5 99 32.5c42.667 0 76.334 -11.167 101.001 -33.5s37 -52.833 37 -91.5c0 -32.667 -9.5 -61.667 -28.5 -87s-52.5 -49 -100.5 -71z" />
    <glyph glyph-name="nine" unicode="9" horiz-adv-x="542" 
d="M429 287c-10 -90.667 -39.833 -159 -89.5 -205s-121.834 -79.333 -216.501 -100l8 -33c52.667 10 99.834 24.833 141.501 44.5s77.5 45.667 107.5 78s53.167 72.333 69.5 120s24.5 104.167 24.5 169.5c0 94 -19.5 164.833 -58.5 212.5s-90.5 71.5 -154.5 71.5
c-57.333 0 -104.5 -19 -141.5 -57s-55.5 -91.333 -55.5 -160c0 -66.667 20 -118.5 60 -155.5s87.333 -55.5 142 -55.5c32.667 0 63 6.83301 91 20.5s52 30.167 72 49.5zM432 321c-23.333 -21.333 -48.501 -38.499 -75.501 -51.499s-55.167 -19.5 -84.5 -19.5
c-49.333 0 -89.5 15.5 -120.5 46.5s-46.5 75.5 -46.5 133.5c0 57.333 13.833 102 41.5 134s65.834 48 114.501 48c54 0 96.167 -20.833 126.5 -62.5s45.5 -104.167 45.5 -187.5c0 -18.667 -0.333008 -32.334 -1 -41.001z" />
    <glyph glyph-name="colon" unicode=":" horiz-adv-x="224" 
d="M112 264c10.667 0 19.834 3.83301 27.501 11.5s11.5 16.834 11.5 27.501s-3.83301 19.834 -11.5 27.501s-16.834 11.5 -27.501 11.5s-19.834 -3.83301 -27.501 -11.5s-11.5 -16.834 -11.5 -27.501s3.83301 -19.834 11.5 -27.501s16.834 -11.5 27.501 -11.5zM112 -6
c10.667 0 19.834 3.83301 27.501 11.5s11.5 16.834 11.5 27.501s-3.83301 19.834 -11.5 27.501s-16.834 11.5 -27.501 11.5s-19.834 -3.83301 -27.501 -11.5s-11.5 -16.834 -11.5 -27.501s3.83301 -19.834 11.5 -27.501s16.834 -11.5 27.501 -11.5z" />
    <glyph glyph-name="semicolon" unicode=";" horiz-adv-x="224" 
d="M80 -88c24.667 7.33301 43 20.335 55 39.002s18 41 18 67c0 17.333 -4 30.666 -12 39.999s-17.667 14 -29 14c-10.667 0 -19.834 -3.83301 -27.501 -11.5s-11.5 -16.834 -11.5 -27.501c0 -11.333 3.83301 -20.666 11.5 -27.999s17.834 -11 30.501 -11
c-0.666992 -12.667 -5.16699 -24.334 -13.5 -35.001s-18.833 -19 -31.5 -25zM112 264.002c10.667 0 19.834 3.83301 27.501 11.5s11.5 16.834 11.5 27.501s-3.83301 19.834 -11.5 27.501s-16.834 11.5 -27.501 11.5s-19.834 -3.83301 -27.501 -11.5
s-11.5 -16.834 -11.5 -27.501s3.83301 -19.834 11.5 -27.501s16.834 -11.5 27.501 -11.5z" />
    <glyph glyph-name="less" unicode="&#x3c;" horiz-adv-x="310" 
d="M241 87l23 24l-170 174l170 175l-23 24l-190 -194v-9z" />
    <glyph glyph-name="equal" unicode="=" horiz-adv-x="519" 
d="M74 344h370v33h-370v-33zM74 194h370v33h-370v-33z" />
    <glyph glyph-name="greater" unicode="&#x3e;" horiz-adv-x="310" 
d="M69 87l190 194v9l-190 194l-23 -24l170 -174l-170 -175z" />
    <glyph glyph-name="question" unicode="?" horiz-adv-x="411" 
d="M158 167l37.999 0.000976562v90c0 18 1 32.667 3 44s5.33301 21.166 10 29.499s10.834 16.166 18.501 23.499s18.834 17 33.501 29c13.333 10.667 24.166 20 32.499 28s15.833 17.667 22.5 29c18.667 28.667 28 63.334 28 104.001c0 51.333 -13.167 88.833 -39.5 112.5
s-62.833 35.5 -109.5 35.5c-26 0 -52.333 -4.5 -79 -13.5s-49.334 -20.167 -68.001 -33.5l15 -27c18 11.333 39.333 21 64 29s47.667 12 69 12c38.667 0 66.334 -9 83.001 -27s25 -48 25 -90c0 -34.667 -6.16699 -61.5 -18.5 -80.5s-29.833 -37.833 -52.5 -56.5l-8 -6
c-22.667 -18.667 -39.5 -37.167 -50.5 -55.5s-16.5 -46.5 -16.5 -84.5v-92zM177.999 -5.99902c10.667 0 19.834 3.83301 27.501 11.5s11.5 16.834 11.5 27.501s-3.83301 20 -11.5 28s-16.834 12 -27.501 12s-19.834 -4 -27.501 -12s-11.5 -17.333 -11.5 -28
s3.83301 -19.834 11.5 -27.501s16.834 -11.5 27.501 -11.5z" />
    <glyph glyph-name="at" unicode="@" horiz-adv-x="772" 
d="M347 -143c28.667 0 54.001 1.99902 76.001 5.99902s45.667 9.66699 71 17l-9 28c-20 -6 -41.333 -10.833 -64 -14.5s-47.667 -5.5 -75 -5.5c-48 0 -88 7.5 -120 22.5s-57.167 36.333 -75.5 64s-31.333 61 -39 100s-11.5 84.5 -11.5 136.5c0 48.667 6 95 18 139
s30.333 83.167 55 117.5s56 61.333 94 81s82.333 29.5 133 29.5c52 0 95.667 -8.33301 131 -25s63.333 -39.5 84 -68.5s35.334 -62.5 44.001 -100.5s13 -80 13 -126c0 -79.333 -8.83301 -138.166 -26.5 -176.499s-46.834 -57.5 -87.501 -57.5c-45.333 0 -68 23.333 -68 70
c0 15.333 2.33301 33.333 7 54l64 299h-39l-9 -41c-14.667 15.333 -30.834 28 -48.501 38s-37.834 15 -60.501 15c-44.667 0 -81.334 -16.333 -110.001 -49s-51.334 -86.334 -68.001 -161.001c-10 -44 -15 -82.333 -15 -115c0 -46 9 -79 27 -99s41.667 -30 71 -30
c26.667 0 52.334 7.83301 77.001 23.5s47 35.167 67 58.5c2 -29.333 12 -52.333 30 -69s42.333 -25 73 -25c52.667 0 91.5 22.5 116.5 67.5s37.5 110.833 37.5 197.5c0 48.667 -5.33301 93.834 -16 135.501s-28 78.667 -52 111s-56.167 57.833 -96.5 76.5
s-89.166 28 -146.499 28c-56 0 -105.333 -10.5 -148 -31.5s-78 -50 -106 -87s-48.833 -79.333 -62.5 -127s-20.5 -98.5 -20.5 -152.5c0 -56 5 -105.667 15 -149s26 -80.333 48 -111s51.333 -54 88 -70s81.334 -24 134.001 -24zM312.001 36.999
c-19.333 0 -34.502 6.33105 -45.502 18.998s-16.5 35.334 -16.5 68.001c0 30.667 5.33301 70.334 16 119.001c14.667 67.333 32.834 114.833 54.501 142.5s49.834 41.5 84.501 41.5c20 0 38 -4.5 54 -13.5s32 -21.5 48 -37.5l-55 -254c-24 -26.667 -47.5 -47.5 -70.5 -62.5
s-46.167 -22.5 -69.5 -22.5z" />
    <glyph glyph-name="A" unicode="A" horiz-adv-x="536" 
d="M147 238h242l73 -238h41l-212 685h-42l-217 -685h40zM378 272h-220.002l81 258c7.33301 22 13.833 44.167 19.5 66.5s9.5 40.166 11.5 53.499h1c2.66699 -15.333 6.33398 -33.666 11.001 -54.999s10.334 -43 17.001 -65z" />
    <glyph glyph-name="B" unicode="B" horiz-adv-x="534" 
d="M98 0l172.999 0.000976562c64.667 0 115.334 15.167 152.001 45.5s55 76.833 55 139.5c0 50 -10.833 90 -32.5 120s-51.167 49 -88.5 57c32 10.667 54.833 28.167 68.5 52.5s20.5 54.833 20.5 91.5c0 25.333 -3.16699 48.666 -9.5 69.999s-16.5 40.333 -30.5 57
s-32.667 29.5 -56 38.5s-51.333 13.5 -84 13.5h-168v-685zM137.999 33.001v309h135c58 0 99.833 -12.5 125.5 -37.5s38.5 -63.833 38.5 -116.5c0 -51.333 -13 -90 -39 -116s-68 -39 -126 -39h-134zM136.999 375.001l0.000976562 277h132c48.667 0 83.667 -12.5 105 -37.5
s32 -60.5 32 -106.5c0 -44.667 -10.333 -78 -31 -100s-55.334 -33 -104.001 -33h-134z" />
    <glyph glyph-name="C" unicode="C" horiz-adv-x="528" 
d="M317 -7c32.667 0 63.167 5.33301 91.5 16s52.833 25 73.5 43l-20 28c-20 -16 -41.833 -28.833 -65.5 -38.5s-50.167 -14.5 -79.5 -14.5c-76 0 -129.333 25.167 -160 75.5s-46 129.833 -46 238.5c0 106.667 15.167 186.167 45.5 238.5s81.5 78.5 153.5 78.5
c53.333 0 100 -15.667 140 -47l20 28c-22 16.667 -46.167 29.667 -72.5 39s-55.5 14 -87.5 14c-82 0 -142.5 -30 -181.5 -90s-58.5 -147.667 -58.5 -263s19.333 -201.833 58 -259.5s101.667 -86.5 189 -86.5z" />
    <glyph glyph-name="D" unicode="D" horiz-adv-x="576" 
d="M98 0l141 0.000976562c96 0 164.5 25.333 205.5 76s61.5 135 61.5 253c0 64.667 -4.66699 119.167 -14 163.5s-24.333 80.666 -45 108.999s-48.167 49.333 -82.5 63s-76.833 20.5 -127.5 20.5h-139v-685zM138 33.001l-0.000976562 619h104
c44 0 80.333 -6.16699 109 -18.5s51.334 -31.166 68.001 -56.499s28.5 -57.833 35.5 -97.5s10.5 -88.834 10.5 -147.501c0 -54 -3.5 -99.5 -10.5 -136.5s-18.833 -67.167 -35.5 -90.5c-33.333 -48 -92 -72 -176 -72h-105z" />
    <glyph glyph-name="E" unicode="E" horiz-adv-x="489" 
d="M98 0h340v33h-300v312h236v33h-236v274h289v33h-329v-685z" />
    <glyph glyph-name="F" unicode="F" horiz-adv-x="480" 
d="M98 0h40v345h240v33h-240v274h287v33h-327v-685z" />
    <glyph glyph-name="G" unicode="G" horiz-adv-x="579" 
d="M460 52l11.001 -52h24v349h-202v-33h162v-234c-18.667 -17.333 -40.667 -31 -66 -41s-53 -15 -83 -15c-68.667 0 -118.334 26 -149.001 78s-46 130.333 -46 235c0 49.333 3.33301 93.333 10 132s17.667 72 33 100s35.666 49.5 60.999 64.5s56 22.5 92 22.5
c28.667 0 54.334 -4 77.001 -12s44.334 -20.667 65.001 -38l22 28c-42.667 37.333 -97 56 -163 56c-42.667 0 -79.167 -8.5 -109.5 -25.5s-55 -41.167 -74 -72.5s-32.833 -68.333 -41.5 -111s-13 -90.667 -13 -144c0 -116.667 19 -203.5 57 -260.5s98.667 -85.5 182 -85.5
c31.333 0 59.166 5.16699 83.499 15.5s46.833 24.833 67.5 43.5z" />
    <glyph glyph-name="H" unicode="H" horiz-adv-x="593" 
d="M98 0h40v350h317v-350h40v685h-40v-302h-317v302h-40v-685z" />
    <glyph glyph-name="I" unicode="I" horiz-adv-x="302" 
d="M131 656v-627l-72 -5v-24h184v24l-72 5v627l72 5v24h-184v-24z" />
    <glyph glyph-name="J" unicode="J" horiz-adv-x="236" 
d="M12 -126c28 12 50 23.998 66 35.998s28.333 25.5 37 40.5s14.667 33 18 54s5 48.167 5 81.5v599h-40v-617c0 -25.333 -1.5 -46.166 -4.5 -62.499s-8.16699 -30.166 -15.5 -41.499s-17 -21.5 -29 -30.5s-29 -19.5 -51 -31.5z" />
    <glyph glyph-name="K" unicode="K" horiz-adv-x="512" 
d="M422 0h47l-257 368l252 317h-46l-251 -318zM98 0h40v685h-40v-685z" />
    <glyph glyph-name="L" unicode="L" horiz-adv-x="461" 
d="M98 0h311v33h-271v652h-40v-685z" />
    <glyph glyph-name="M" unicode="M" horiz-adv-x="683" 
d="M98 0l39 0.00195312v511c0 17.333 -0.333008 40.333 -1 69l-2 78h1l10 -35.5c2.66699 -9 5 -16.5 7 -22.5l8 -23.5l11 -31.5l8 -22l142 -386h41l142 386c13.333 35.333 22.5 61.166 27.5 77.499s10.167 35.166 15.5 56.499v1h1v-10c-1.33301 -42 -2 -87.667 -2 -137v-511
h39v685h-60l-152 -414c-10 -26 -16.5 -45 -19.5 -57s-5.5 -24 -7.5 -36c-1.33301 -5.33301 -2 -8.66602 -2 -9.99902h-1c-2 11.333 -5.83301 26.166 -11.5 44.499s-12.5 37.833 -20.5 58.5l-151 414h-62v-685z" />
    <glyph glyph-name="N" unicode="N" horiz-adv-x="593" 
d="M98 0h38v489c0 42.667 -0.333008 76.5 -1 101.5s-2 47.833 -4 68.5h1c7.33301 -21.333 16 -44.333 26 -69s22 -51 36 -79l252 -511h49v685h-38v-508c0 -34 0.333008 -60.667 1 -80s2 -40 4 -62h-1c-7.33301 20.667 -15 40.5 -23 59.5s-19 42.5 -33 70.5l-254 520h-53
v-685z" />
    <glyph glyph-name="O" unicode="O" horiz-adv-x="608" 
d="M306 -7c80.667 0 139.502 28.833 176.502 86.5s55.5 145.167 55.5 262.5c0 112.667 -19.833 199.167 -59.5 259.5s-97.834 90.5 -174.501 90.5s-134.834 -30.333 -174.501 -91s-59.5 -148 -59.5 -262s19.167 -200.167 57.5 -258.5s97.833 -87.5 178.5 -87.5zM305.002 26
c-68 0 -117.333 25.833 -148 77.5s-46 130.834 -46 237.501c0 105.333 15.667 184.666 47 237.999s80 80 146 80s114.667 -27 146 -81s47 -134.333 47 -241c0 -105.333 -15 -183.5 -45 -234.5s-79 -76.5 -147 -76.5z" />
    <glyph glyph-name="P" unicode="P" horiz-adv-x="507" 
d="M98 0h39.999v294h119c60 0 106.667 16.833 140 50.5s50 83.5 50 149.5c0 62 -16.667 109.333 -50 142s-83.666 49 -150.999 49h-148v-685zM137.999 327l0.000976562 324.999h104c57.333 0 98.666 -12.667 123.999 -38s38 -65.666 38 -120.999
c0 -57.333 -12.333 -99.333 -37 -126s-62.667 -40 -114 -40h-115z" />
    <glyph glyph-name="Q" unicode="Q" horiz-adv-x="612" 
d="M323 -1c76 4 130.835 33.833 164.502 89.5s50.5 140.167 50.5 253.5c0 112.667 -19.833 199.167 -59.5 259.5s-97.834 90.5 -174.501 90.5s-134.834 -30.333 -174.501 -91s-59.5 -148 -59.5 -262c0 -54.667 4 -101.667 12 -141s19.167 -72 33.5 -98
s31.333 -46.833 51 -62.5s42.5 -28.167 68.5 -37.5l290 -105l13 36zM305.002 26c-68 0 -117.333 25.833 -148 77.5s-46 130.834 -46 237.501c0 105.333 15.667 184.666 47 237.999s80 80 146 80s114.667 -27 146 -81s47 -134.333 47 -241c0 -105.333 -15 -183.5 -45 -234.5
s-79 -76.5 -147 -76.5z" />
    <glyph glyph-name="R" unicode="R" horiz-adv-x="551" 
d="M98 0l40.002 0.00195312v311h92c39.333 0 68.666 -6.83301 87.999 -20.5s36.666 -40.5 51.999 -80.5l82 -210h41l-85 223c-11.333 30 -23.666 52.167 -36.999 66.5s-29 24.833 -47 31.5c84.667 17.333 127 78.666 127 183.999c0 61.333 -17.833 106.666 -53.5 135.999
s-81.834 44 -138.501 44h-161v-685zM138.002 344.002l0.000976562 307.999h115c55.333 0 95.333 -12.5 120 -37.5s37 -62.167 37 -111.5c0 -53.333 -11.333 -93.166 -34 -119.499s-61.334 -39.5 -116.001 -39.5h-122z" />
    <glyph glyph-name="S" unicode="S" horiz-adv-x="499" 
d="M234 -7c64.667 0 113.169 16.501 145.502 49.501s48.5 76.167 48.5 129.5c0 29.333 -3.83301 54.166 -11.5 74.499s-18.834 38 -33.501 53s-32.167 28.5 -52.5 40.5s-46.833 25 -79.5 39c-51.333 22.667 -87 43.667 -107 63s-30 49.666 -30 90.999
c0 40.667 12.667 71.834 38 93.501s57 32.5 95 32.5c52 0 97.333 -14 136 -42l19 30c-22 14.667 -44.833 25.834 -68.5 33.501s-52.5 11.5 -86.5 11.5c-50.667 0 -92 -14.333 -124 -43s-48 -67.667 -48 -117c0 -26.667 4 -49.834 12 -69.501s19.167 -36.167 33.5 -49.5
s30.5 -25 48.5 -35s41 -21 69 -33c56 -24 95 -47.167 117 -69.5s33 -56.833 33 -103.5s-12.667 -82.667 -38 -108s-64.333 -38 -117 -38c-36.667 0 -69.834 7.33301 -99.501 22s-55.5 34.667 -77.5 60l-25 -27c24 -26 53.333 -47.167 88 -63.5s73 -24.5 115 -24.5z" />
    <glyph glyph-name="T" unicode="T" horiz-adv-x="493" 
d="M226 0h40v652h173v33h-386v-33h173v-652z" />
    <glyph glyph-name="U" unicode="U" horiz-adv-x="587" 
d="M449 104c-20.667 -20.667 -46.5 -38.667 -77.5 -54s-66.167 -23 -105.5 -23c-44 0 -77 13.167 -99 39.5s-33 69.833 -33 130.5v488h-40v-494c0 -68 15.167 -118 45.5 -150s72.833 -48 127.5 -48c36.667 0 70.5 7.33301 101.5 22s58.167 33 81.5 55l14 -70h25v685h-40
v-581z" />
    <glyph glyph-name="V" unicode="V" horiz-adv-x="526" 
d="M239 0l43 0.000976562l212 685h-40l-162 -523c-6.66699 -20.667 -13 -43.334 -19 -68.001s-10 -43.667 -12 -57h-1c-2 14.667 -5.83301 34 -11.5 58s-11.5 46.333 -17.5 67l-158 523h-41z" />
    <glyph glyph-name="W" unicode="W" horiz-adv-x="783" 
d="M187 0h56.002l129 530c5.33301 22 10 42.667 14 62s7 36.666 9 51.999h1c2 -14.667 5 -31.5 9 -50.5l14 -63.5l123 -530h56l149 685h-39l-115 -531c-4.66699 -21.333 -9 -42.666 -13 -63.999s-7.33301 -41 -10 -59h-1c-2.66699 18 -6 37.5 -10 58.5
s-8.66699 42.5 -14 64.5l-125 531h-47l-131 -531c-4.66699 -19.333 -8.83398 -38 -12.501 -56s-7.83398 -40.333 -12.501 -67h-1c-3.33301 22 -7 42.667 -11 62l-13 61l-115 531h-41z" />
    <glyph glyph-name="X" unicode="X" horiz-adv-x="520" 
d="M237 376l-211 -376h41l194 348l191 -348h42l-209 379l170 306h-41l-153 -277l-26 47.5l-72 130l-56 99.5h-42z" />
    <glyph glyph-name="Y" unicode="Y" horiz-adv-x="538" 
d="M245 0h40v264l198 421h-41l-142 -304c-8.66699 -19.333 -15 -34.166 -19 -44.499l-14 -37.5l-1 -2c-4 12 -8.33301 23.667 -13 35s-12 27.666 -22 48.999l-145 304h-42l201 -420v-265z" />
    <glyph glyph-name="Z" unicode="Z" horiz-adv-x="466" 
d="M46 0h370v33h-328l330 618v34h-357v-33h316l-331 -620v-32z" />
    <glyph glyph-name="bracketleft" unicode="[" horiz-adv-x="294" 
d="M95 -154h152v33h-112v822h112v33h-152v-888z" />
    <glyph glyph-name="backslash" unicode="\" horiz-adv-x="335" 
d="M277 -144h38l-257 901h-38z" />
    <glyph glyph-name="bracketright" unicode="]" horiz-adv-x="294" 
d="M47 -154h152v888h-152v-33h112v-822h-112v-33z" />
    <glyph glyph-name="asciicircum" unicode="^" horiz-adv-x="439" 
d="M63 459h39l118 211l119 -211h40l-143 249h-31z" />
    <glyph glyph-name="underscore" unicode="_" horiz-adv-x="271" 
d="M-1 -120h273v33h-273v-33z" />
    <glyph glyph-name="grave" unicode="`" horiz-adv-x="450" 
d="M285 522l16 21l-146 105l-22 -31z" />
    <glyph glyph-name="a" unicode="a" 
d="M329 270l-77.9971 0.000976562c-66 0 -114.333 -11.833 -145 -35.5s-46 -59.834 -46 -108.501c0 -42 11.667 -74.667 35 -98s55.666 -35 96.999 -35c31.333 0 58.833 7.33301 82.5 22s42.167 31.667 55.5 51l15 -66h22v340c0 84 -40.667 126 -122 126
c-31.333 0 -59.333 -4.83301 -84 -14.5s-49.334 -23.5 -74.001 -41.5l16 -26c24 16.667 47.167 29.167 69.5 37.5s46.166 12.5 71.499 12.5c30.667 0 52.5 -8 65.5 -24s19.5 -40.333 19.5 -73v-67zM329.003 100.001c-15.333 -20.667 -34.168 -38 -56.501 -52
s-48.166 -21 -77.499 -21c-64 0 -96 32.667 -96 98c0 40.667 11.667 69.667 35 87s63.333 26 120 26h75v-138z" />
    <glyph glyph-name="b" unicode="b" horiz-adv-x="488" 
d="M266 -7c51.333 0 90.834 19.5 118.501 58.5s41.5 97.5 41.5 175.5c0 79.333 -13.667 139 -41 179s-65.333 60 -114 60c-27.333 0 -53.333 -7.16699 -78 -21.5s-46.334 -31.833 -65.001 -52.5v316h-38v-708h22l14 64c18 -20.667 38.5 -37.667 61.5 -51
s49.167 -20 78.5 -20zM264.001 27c-26 0 -49.833 5.66895 -71.5 17.002s-43.167 28 -64.5 50v267v0c25.333 22.667 48.333 40.167 69 52.5s44 18.5 70 18.5c40 0 70 -15.833 90 -47.5s30 -85.834 30 -162.501c0 -66.667 -10.5 -115.834 -31.5 -147.501
s-51.5 -47.5 -91.5 -47.5z" />
    <glyph glyph-name="c" unicode="c" horiz-adv-x="418" 
d="M238 -7c30.667 0 57.165 5.66699 79.498 17s41.5 26 57.5 44l-27 21c-12 -14.667 -26.5 -26.667 -43.5 -36s-38.833 -14 -65.5 -14c-46 0 -80.5 15.833 -103.5 47.5s-34.5 84.5 -34.5 158.5c0 72 11.667 123.833 35 155.5s56.666 47.5 99.999 47.5
c24 0 43.833 -3.83301 59.5 -11.5s30.834 -19.5 45.501 -35.5l24 25c-16.667 17.333 -35 30.666 -55 39.999s-44 14 -72 14c-25.333 0 -48.666 -4.33301 -69.999 -13s-39.666 -22.334 -54.999 -41.001c-34 -40.667 -51 -102 -51 -184c0 -43.333 4.66699 -80.166 14 -110.499
s22 -54.666 38 -72.999s34.5 -31.5 55.5 -39.5s43.833 -12 68.5 -12z" />
    <glyph glyph-name="d" unicode="d" horiz-adv-x="488" 
d="M217 -7c27.333 0 53.333 7.16602 78 21.499s47 32.5 67 54.5l14 -69h22v708h-38v-311c-18.667 20.667 -39.167 37.334 -61.5 50.001s-47.833 19 -76.5 19c-51.333 0 -90.833 -19.5 -118.5 -58.5s-41.5 -97.5 -41.5 -175.5c0 -79.333 13.667 -139 41 -179
s65.333 -60 114 -60zM221 26.999c-40 0 -70 15.8311 -90 47.498s-30 85.834 -30 162.501c0 66.667 10.5 115.834 31.5 147.501s51.5 47.5 91.5 47.5c26 0 49.833 -5.66699 71.5 -17s43.167 -28 64.5 -50v-267v0c-25.333 -22 -48.333 -39.333 -69 -52s-44 -19 -70 -19z" />
    <glyph glyph-name="e" unicode="e" 
d="M101 230l291.001 -0.000976562v16c0 146.667 -52.667 220 -158 220c-24.667 0 -47.334 -4.33301 -68.001 -13s-38.834 -22.5 -54.501 -41.5s-27.834 -43.833 -36.501 -74.5s-13 -67 -13 -109c0 -44 4.83301 -81.167 14.5 -111.5s22.834 -54.666 39.501 -72.999
s36 -31.333 58 -39s46.333 -11.5 73 -11.5c28 0 53.333 4 76 12s43.667 19.333 63 34l-22 27c-16 -12.667 -33.5 -22.667 -52.5 -30s-41.167 -11 -66.5 -11c-49.333 0 -85.666 15.833 -108.999 47.5s-35 84.167 -35 157.5zM102.001 260.999
c2.66699 62 15.333 106.333 38 133s54 40 94 40c39.333 0 69 -13.333 89 -40s30 -71 30 -133h-251z" />
    <glyph glyph-name="f" unicode="f" horiz-adv-x="283" 
d="M101 428v-428.001h38v428h100v31h-100v147c0 26 5.5 45.5 16.5 58.5s25.5 19.5 43.5 19.5c13.333 0 25 -1.5 35 -4.5s20.667 -7.83301 32 -14.5l17 27c-12.667 8.66699 -25.334 14.834 -38.001 18.501s-28.667 5.5 -48 5.5c-27.333 0 -50.166 -9.5 -68.499 -28.5
s-27.5 -45.167 -27.5 -78.5v-150h-58v-31h58z" />
    <glyph glyph-name="g" unicode="g" horiz-adv-x="433" 
d="M269 459c-14 4.66699 -31.333 6.99805 -52 6.99805c-45.333 0 -82.166 -13 -110.499 -39s-42.5 -62 -42.5 -108c0 -54.667 20.667 -95 62 -121c-18 -15.333 -32 -30.666 -42 -45.999s-15 -33 -15 -53c0 -30.667 14.333 -51 43 -61c-22 -16 -39.5 -33.333 -52.5 -52
s-19.5 -41 -19.5 -67c0 -38 15 -69.167 45 -93.5s72 -36.5 126 -36.5c60 0 107 13.5 141 40.5s51 64.167 51 111.5c0 40.667 -12.667 72 -38 94s-61.333 33 -108 33h-105c-16.667 0 -28.334 3 -35.001 9s-10 15 -10 27c0 15.333 3.83301 29.833 11.5 43.5
s17.834 26.834 30.501 39.501c19.333 -8.66699 41.666 -13 66.999 -13c44 0 80 13.167 108 39.5s42 62.5 42 108.5c0 44.667 -13.667 80 -41 106l78 7v24h-134zM143 32.998h121c33.333 0 58.333 -8.16699 75 -24.5s25 -38.833 25 -67.5c0 -39.333 -13.167 -69.333 -39.5 -90
s-64.5 -31 -114.5 -31c-45.333 0 -78.5 9 -99.5 27s-31.5 42 -31.5 72c0 25.333 5.33301 46.5 16 63.5s26.667 33.833 48 50.5zM215 203.998c-34 0 -61.334 9.16797 -82.001 27.501s-31 47.166 -31 86.499c0 40.667 10.333 70.5 31 89.5s48.334 28.5 83.001 28.5
c36.667 0 64.5 -8.66699 83.5 -26s28.5 -46.333 28.5 -87c0 -40 -10.167 -69.833 -30.5 -89.5s-47.833 -29.5 -82.5 -29.5z" />
    <glyph glyph-name="h" unicode="h" horiz-adv-x="485" 
d="M90 0l37.998 -0.000976562v356c28.667 24.667 55 43.5 79 56.5s48.667 19.5 74 19.5c26.667 0 46.834 -7.66699 60.501 -23s20.5 -39.666 20.5 -72.999v-336h38v343c0 40 -10.667 70.5 -32 91.5s-49.333 31.5 -84 31.5c-27.333 0 -53.166 -6.66699 -77.499 -20
s-50.5 -33.333 -78.5 -60v322h-38v-708z" />
    <glyph glyph-name="i" unicode="i" horiz-adv-x="253" 
d="M120 0h38v459h-101v-24l63 -7v-428zM130 583c10 0 18 3.16699 24 9.5s9 14.5 9 24.5s-3.16699 18.167 -9.5 24.5s-14.5 9.5 -24.5 9.5s-18 -3.16699 -24 -9.5s-9 -14.5 -9 -24.5s3.16699 -18.167 9.5 -24.5s14.5 -9.5 24.5 -9.5z" />
    <glyph glyph-name="j" unicode="j" horiz-adv-x="253" 
d="M60 -209c35.333 15.333 60.5 32.668 75.5 52.001s22.5 52 22.5 98v518h-101v-24l63 -7v-487c0 -36.667 -5.16699 -62.834 -15.5 -78.501s-29.5 -31.167 -57.5 -46.5zM130 583.002c10 0 18 3.16699 24 9.5s9 14.5 9 24.5s-3.16699 18.167 -9.5 24.5s-14.5 9.5 -24.5 9.5
s-18 -3.16699 -24 -9.5s-9 -14.5 -9 -24.5s3.16699 -18.167 9.5 -24.5s14.5 -9.5 24.5 -9.5z" />
    <glyph glyph-name="k" unicode="k" horiz-adv-x="427" 
d="M90 0h38v708h-38v-708zM356 0h46l-202 257l178 202h-46l-178 -202z" />
    <glyph glyph-name="l" unicode="l" horiz-adv-x="233" 
d="M157 -7c11.333 0 23 2.66699 35 8l-8 27c-1.33301 -0.666992 -4 -1.5 -8 -2.5s-8.66699 -1.5 -14 -1.5c-11.333 0 -19.833 3.16699 -25.5 9.5s-8.5 17.5 -8.5 33.5v641h-38v-643c0 -26 6.33301 -44.5 19 -55.5s28.667 -16.5 48 -16.5z" />
    <glyph glyph-name="m" unicode="m" horiz-adv-x="726" 
d="M90 0l38 -0.00195312v361c28.667 24 53.834 41.833 75.501 53.5s44.5 17.5 68.5 17.5c25.333 0 44 -7.33301 56 -22s18 -38.667 18 -72v-338h38v364c26 22.667 50.333 39.667 73 51s46.334 17 71.001 17c25.333 0 44 -7.33301 56 -22s18 -38.667 18 -72v-338h38v345
c0 39.333 -9.83301 69.333 -29.5 90s-46.167 31 -79.5 31c-26 0 -50.333 -6.16699 -73 -18.5s-48.667 -31.166 -78 -56.499c-8 22.667 -21 40.834 -39 54.501s-40 20.5 -66 20.5c-26.667 0 -51.334 -6.5 -74.001 -19.5s-47.334 -31.833 -74.001 -56.5l-15 69h-22v-459z" />
    <glyph glyph-name="n" unicode="n" horiz-adv-x="485" 
d="M90 0l37.999 -0.000976562v356c28.667 24.667 55 43.5 79 56.5s48.667 19.5 74 19.5c26.667 0 46.834 -7.66699 60.501 -23s20.5 -39.666 20.5 -72.999v-336h38v343c0 40 -10.667 70.5 -32 91.5s-49.333 31.5 -84 31.5c-27.333 0 -53.5 -7 -78.5 -21
s-51.167 -34 -78.5 -60l-15 74h-22v-459z" />
    <glyph glyph-name="o" unicode="o" horiz-adv-x="481" 
d="M241 -7c54.667 0 98 19.5 130 58.5s48 98.5 48 178.5s-16.667 139.333 -50 178s-77 58 -131 58c-53.333 0 -96 -19.333 -128 -58s-48 -98.667 -48 -180c0 -80.667 16.167 -140 48.5 -178s75.833 -57 130.5 -57zM241 24c-46 0 -80.833 16.332 -104.5 48.999
s-35.5 85.334 -35.5 158.001c0 72 11.667 124 35 156s58 48 104 48s80.833 -16.833 104.5 -50.5s35.5 -86.5 35.5 -158.5c0 -70.667 -11.667 -122 -35 -154s-58 -48 -104 -48z" />
    <glyph glyph-name="p" unicode="p" horiz-adv-x="488" 
d="M90 -207l38 0.000976562v269c18.667 -20.667 39.167 -37.334 61.5 -50.001s47.833 -19 76.5 -19c51.333 0 90.833 19.5 118.5 58.5s41.5 97.5 41.5 175.5c0 79.333 -13.667 139 -41 179s-65.333 60 -114 60c-27.333 0 -53.333 -7.16699 -78 -21.5s-47 -32.5 -67 -54.5
l-14 69h-22v-666zM264 27.001c-26 0 -49.833 5.66895 -71.5 17.002s-43.167 28 -64.5 50v267v0c25.333 22.667 48.333 40.167 69 52.5s44 18.5 70 18.5c40 0 70 -15.833 90 -47.5s30 -85.834 30 -162.501c0 -66.667 -10.5 -115.834 -31.5 -147.501s-51.5 -47.5 -91.5 -47.5z
" />
    <glyph glyph-name="q" unicode="q" horiz-adv-x="488" 
d="M360 -207h37.999v666h-22l-14 -64c-18 20.667 -38.5 37.667 -61.5 51s-49.167 20 -78.5 20c-51.333 0 -90.833 -19.5 -118.5 -58.5s-41.5 -97.5 -41.5 -175.5c0 -79.333 13.667 -139 41 -179s65.333 -60 114 -60c27.333 0 53.333 7.16699 78 21.5
s46.334 31.833 65.001 52.5v-274zM220.999 27c-40 0 -70 15.8311 -90 47.498s-30 85.834 -30 162.501c0 66.667 10.5 115.834 31.5 147.501s51.5 47.5 91.5 47.5c26 0 49.833 -5.66699 71.5 -17s43.167 -28 64.5 -50v-267v0c-25.333 -22 -48.333 -39.333 -69 -52
s-44 -19 -70 -19z" />
    <glyph glyph-name="r" unicode="r" horiz-adv-x="318" 
d="M90 0l38.002 0.000976562v337c25.333 29.333 49.166 51.166 71.499 65.499s45.833 21.5 70.5 21.5c5.33301 0 10 -0.333008 14 -1l3 40c-6 0.666992 -10.667 1 -14 1c-26 0 -51.333 -8.5 -76 -25.5s-48.334 -39.833 -71.001 -68.5l-14 89h-22v-459z" />
    <glyph glyph-name="s" unicode="s" horiz-adv-x="390" 
d="M184 -7c44 0 79.335 10.8311 106.002 32.498s40 52.5 40 92.5c0 21.333 -3.33301 39.5 -10 54.5s-16.334 27.833 -29.001 38.5c-17.333 15.333 -50.666 32 -99.999 50c-35.333 12.667 -59.5 25.334 -72.5 38.001s-19.5 32.334 -19.5 59.001
c0 24.667 8.16699 43.5 24.5 56.5s38.166 19.5 65.499 19.5c22.667 0 42.167 -2.5 58.5 -7.5s33.166 -12.5 50.499 -22.5l15 29c-16.667 10 -34.834 18 -54.501 24s-42.5 9 -68.5 9c-40 0 -71.333 -10.167 -94 -30.5s-34 -46.5 -34 -78.5c0 -35.333 10.167 -62.5 30.5 -81.5
s50.5 -35.167 90.5 -48.5c42 -14 70.667 -28.5 86 -43.5s23 -37.167 23 -66.5c0 -28.667 -9.16699 -51.167 -27.5 -67.5s-45.166 -24.5 -80.499 -24.5c-26 0 -48.667 3.83301 -68 11.5s-38.333 18.5 -57 32.5l-19 -26c18.667 -15.333 40 -27.5 64 -36.5
s50.667 -13.5 80 -13.5z" />
    <glyph glyph-name="t" unicode="t" horiz-adv-x="294" 
d="M102 428v-359c0 -26 7 -45.167 21 -57.5s32.333 -18.5 55 -18.5c14.667 0 27.5 1.66699 38.5 5s21.5 8 31.5 14l-13 27c-18.667 -9.33301 -37.667 -14 -57 -14c-26 0 -39 14.333 -39 43v360h97v31h-97v134l-37 -10v-124h-59v-31h59z" />
    <glyph glyph-name="u" unicode="u" horiz-adv-x="485" 
d="M201 -7c28 0 54.668 6.33203 80.001 18.999s51 30.334 77 53.001l15 -65h22v459h-38v-365c-28 -21.333 -54 -37.833 -78 -49.5s-49 -17.5 -75 -17.5c-26.667 0 -46.834 7.66699 -60.501 23s-20.5 39.666 -20.5 72.999v336h-38v-343
c0 -39.333 10.833 -69.666 32.5 -90.999s49.5 -32 83.5 -32z" />
    <glyph glyph-name="v" unicode="v" horiz-adv-x="431" 
d="M194 0h43l152 459h-39l-101 -314c-8 -24 -14.667 -46.167 -20 -66.5s-9.33301 -37.833 -12 -52.5h-1c-2 14 -5.66699 31.5 -11 52.5s-12 43.167 -20 66.5l-103 314h-40z" />
    <glyph glyph-name="w" unicode="w" horiz-adv-x="657" 
d="M169 0l43 -0.000976562l103 355c6 21.333 11.333 45.666 16 72.999h1c0.666992 -3.33301 1 -5.33301 1 -6c4.66699 -28 9.33398 -50.333 14.001 -67l98 -355h45l122 459h-39l-84 -333c-4 -15.333 -7.66699 -30.666 -11 -45.999s-6.33301 -30.333 -9 -45h-1l-9.5 47
c-3 14.667 -6.5 29.334 -10.5 44.001l-93 333h-47l-95 -333c-4.66699 -16.667 -10 -40 -16 -70c-2 -8 -3.66699 -15 -5 -21h-1c-4.66699 26.667 -11.334 57 -20.001 91l-84 333h-40z" />
    <glyph glyph-name="x" unicode="x" horiz-adv-x="420" 
d="M40 0l40.001 -0.00195312l83 138l28.5 50c6.33301 11.333 12.166 23 17.499 35h1c4.66699 -11.333 9.33398 -21 14.001 -29l24 -41l9 -15l82 -138h41l-150 249l128 210h-40l-68 -113l-19 -32.5c-4.66699 -8.33301 -11 -21.166 -19 -38.499h-1
c-5.33301 11.333 -9.83301 20.333 -13.5 27s-8.83398 15.334 -15.501 26.001l-11 18l-67 113h-41l127 -212z" />
    <glyph glyph-name="y" unicode="y" horiz-adv-x="431" 
d="M70 -209c24 8 44.333 16.501 61 25.501s31.167 20 43.5 33s23.666 29.5 33.999 49.5s20.166 45.333 29.499 76l151 484h-39l-95 -314c-2 -7.33301 -7.33301 -25 -16 -53c-10.667 -34 -17.667 -58 -21 -72h-1c-4 17.333 -8.66699 35.666 -14 54.999
s-12.333 42.666 -21 69.999l-100 314h-40l147 -459h21c-8 -28 -16.167 -51.667 -24.5 -71s-18.166 -35.666 -29.499 -48.999s-24.666 -24.833 -39.999 -34.5s-34.333 -18.5 -57 -26.5z" />
    <glyph glyph-name="z" unicode="z" horiz-adv-x="412" 
d="M57 0h306v31h-266l258 392v36h-278v-31h238l-258 -392v-36z" />
    <glyph glyph-name="braceleft" unicode="{" horiz-adv-x="364" 
d="M249 -154h68v33h-71c-22.667 0 -39 5.83301 -49 17.5s-15 28.834 -15 51.501v233c0 35.333 -5.83301 61.166 -17.5 77.499s-28.167 27.5 -49.5 33.5v2c21.333 6.66699 37.833 17.667 49.5 33s17.5 40.666 17.5 75.999v229c0 22.667 5 39.834 15 51.501
s26.333 17.5 49 17.5h71v33h-68c-33.333 0 -59.5 -8.33301 -78.5 -25s-28.5 -41 -28.5 -73v-236c0 -32 -7.66699 -55.333 -23 -70s-40.333 -22 -75 -22v-33c35.333 0 60.5 -7.16699 75.5 -21.5s22.5 -37.5 22.5 -69.5v-240c0 -32 9.5 -56.333 28.5 -73s45.167 -25 78.5 -25z
" />
    <glyph glyph-name="bar" unicode="|" horiz-adv-x="219" 
d="M90 -144h39v901h-39v-901z" />
    <glyph glyph-name="braceright" unicode="}" horiz-adv-x="364" 
d="M47 -154h68c33.333 0 59.5 8.33301 78.5 25s28.5 41 28.5 73v240c0 32 7.5 55.167 22.5 69.5s40.167 21.5 75.5 21.5v33c-34.667 0 -59.667 7.33301 -75 22s-23 38 -23 70v236c0 32 -9.5 56.333 -28.5 73s-45.167 25 -78.5 25h-68v-33h71c22.667 0 39 -5.83301 49 -17.5
s15 -28.834 15 -51.501v-229c0 -35.333 5.83301 -60.666 17.5 -75.999s28.167 -26.333 49.5 -33v-2c-21.333 -6 -37.833 -17.167 -49.5 -33.5s-17.5 -42.166 -17.5 -77.499v-233c0 -22.667 -5 -39.834 -15 -51.501s-26.333 -17.5 -49 -17.5h-71v-33z" />
    <glyph glyph-name="asciitilde" unicode="~" horiz-adv-x="460" 
d="M94 282c12 20.667 22.333 35.667 31 45s20 14 34 14c8.66699 0 17.334 -2 26.001 -6s19.667 -10.333 33 -19c16 -10.667 30 -18.667 42 -24s25 -8 39 -8c20 0 37 6.16699 51 18.5s28 32.5 42 60.5l-26 13c-12 -20.667 -22.333 -35.667 -31 -45s-20 -14 -34 -14
c-8.66699 0 -17.334 2.16699 -26.001 6.5s-19.667 10.5 -33 18.5c-16 10.667 -30 18.667 -42 24s-25 8 -39 8c-20 0 -37 -6.16699 -51 -18.5s-28 -32.5 -42 -60.5z" />
    <glyph glyph-name="nbspace" unicode="&#xa0;" horiz-adv-x="209" 
 />
    <glyph glyph-name="exclamdown" unicode="&#xa1;" horiz-adv-x="228" 
d="M93 -207h42l-5 500h-32zM114 385c11.333 0 20.833 4 28.5 12s11.5 17.667 11.5 29c0 10.667 -4 20 -12 28s-17.333 12 -28 12s-20 -4 -28 -12s-12 -17.333 -12 -28c0 -11.333 3.83301 -21 11.5 -29s17.167 -12 28.5 -12z" />
    <glyph glyph-name="cent" unicode="&#xa2;" horiz-adv-x="419" 
d="M216 465c-46.667 -4.66699 -84 -26.332 -112 -64.999s-42 -96 -42 -172c0 -40 4 -74.5 12 -103.5s19 -52.667 33 -71s30.167 -32.166 48.5 -41.499s38.5 -15.333 60.5 -18v-96h34v95c28 2 52.333 8.66699 73 20s38.667 25.666 54 42.999l-27 21
c-12 -14 -25.667 -25.667 -41 -35s-35 -15 -59 -17v408c20 -1.33301 37 -5.83301 51 -13.5s27.333 -18.5 40 -32.5l24 25c-15.333 16 -32 28.667 -50 38s-39.667 14.666 -65 15.999v105h-34v-106zM216 433.002v-406.999c-38 4.66699 -66.667 23.167 -86 55.5
s-29 82.166 -29 149.499c0 66 10 115 30 147s48.333 50.333 85 55z" />
    <glyph glyph-name="sterling" unicode="&#xa3;" horiz-adv-x="497" 
d="M187 299l177.999 0.00195312v33h-189c-8.66699 24.667 -15.5 47.334 -20.5 68.001s-7.5 42.667 -7.5 66c0 46.667 11.667 82.167 35 106.5s55.333 36.5 96 36.5c30.667 0 56 -3.83301 76 -11.5s43 -20.834 69 -39.501l19 26c-26 20.667 -51.333 35.5 -76 44.5
s-53.667 13.5 -87 13.5c-50 0 -91.333 -15 -124 -45s-49 -74 -49 -132c0 -23.333 2.33301 -45.333 7 -66s11.334 -43 20.001 -67h-80v-33h92c8 -20.667 14.167 -40.334 18.5 -59.001s6.5 -38.334 6.5 -59.001c0 -34 -7.33301 -62.5 -22 -85.5s-36.667 -43.167 -66 -60.5v-35
h359v33h-311c26.667 17.333 46.5 39 59.5 65s19.5 53.667 19.5 83c0 20 -2 39.167 -6 57.5s-9.66699 38.5 -17 60.5z" />
    <glyph glyph-name="currency" unicode="&#xa4;" horiz-adv-x="486" 
d="M61 54l72 87c29.333 -28 66.333 -42 111 -42c44 0 80 13.667 108 41l72 -86l26 23l-75 91c22 34.667 33 78.667 33 132s-11 96.666 -33 129.999l75 91l-25 23l-72 -87c-29.333 28.667 -66.333 43 -111 43s-81 -14 -109 -42l-71 86l-26 -23l75 -91
c-21.333 -35.333 -32 -79.333 -32 -132c0 -53.333 11 -96.666 33 -129.999l-76 -91zM244 131c-40.667 0 -71.833 14.166 -93.5 42.499s-32.5 70.833 -32.5 127.5c0 111.333 41.667 167 125 167c84 0 126 -57.333 126 -172c0 -55.333 -10.5 -96.666 -31.5 -123.999
s-52.167 -41 -93.5 -41z" />
    <glyph glyph-name="yen" unicode="&#xa5;" horiz-adv-x="546" 
d="M222 316l31 -62.999v-49h-192v-33h192v-171h40v171h192v33h-192v48l32 64h160v33h-145l15 30.5l66 134l60 121.5h-42l-131 -275c-7.33301 -16 -12.833 -28.833 -16.5 -38.5l-13.5 -35.5l-4 -11c-4 13.333 -8.66699 26.166 -14 38.499l-21 46.5l-132 275h-43l141 -286
h-144v-33h161z" />
    <glyph glyph-name="brokenbar" unicode="&#xa6;" horiz-adv-x="219" 
d="M90 348h39v409h-39v-409zM90 -144h39v407h-39v-407z" />
    <glyph glyph-name="section" unicode="&#xa7;" horiz-adv-x="538" 
d="M186 409c-37.333 -10.667 -65.8359 -27.667 -85.5029 -51s-29.5 -53 -29.5 -89c0 -42.667 13.667 -76.167 41 -100.5s69.333 -45.833 126 -64.5c53.333 -17.333 89.5 -34.833 108.5 -52.5s28.5 -42.5 28.5 -74.5c0 -62.667 -35.333 -94 -106 -94
c-30.667 0 -57.167 4.83301 -79.5 14.5s-43.166 23.167 -62.499 40.5l-22 -26c17.333 -17.333 40.333 -32 69 -44s60.334 -18 95.001 -18c46 0 81.833 11.167 107.5 33.5s38.5 53.5 38.5 93.5c0 48.667 -22.333 87 -67 115c38.667 10 68.167 26.333 88.5 49s30.5 52 30.5 88
c0 46 -13.5 80.667 -40.5 104s-69.167 44.333 -126.5 63c-27.333 8.66699 -49.333 17 -66 25s-29.667 16.5 -39 25.5s-15.833 19.5 -19.5 31.5s-5.5 26.667 -5.5 44c0 27.333 8.83301 48.666 26.5 63.999s44.834 23 81.501 23c24 0 45.333 -3.33301 64 -10
s37.667 -17 57 -31l18 28c-20.667 14.667 -42.167 26 -64.5 34s-47.166 12 -74.499 12c-44.667 0 -80.334 -11.333 -107.001 -34s-40 -51.667 -40 -87c0 -26.667 4.16699 -48.667 12.5 -66s22.5 -32.666 42.5 -45.999zM309.997 112
c-18 8.66699 -39.668 16.9971 -65.001 24.9971c-50 16.667 -85 33.834 -105 51.501s-30 43.834 -30 78.501c0 68 38.333 108.333 115 121c18 -7.33301 40.667 -15.666 68 -24.999c50.667 -16 85.834 -32.5 105.501 -49.5s29.5 -44.5 29.5 -82.5
c0 -65.333 -39.333 -105 -118 -119z" />
    <glyph glyph-name="dieresis" unicode="&#xa8;" horiz-adv-x="541" 
d="M345 540c21.333 0 32 11 32 33s-11 33 -33 33c-21.333 0 -32 -11 -32 -33s11 -33 33 -33zM197 540c21.333 0 32 11 32 33s-11 33 -33 33c-21.333 0 -32 -11 -32 -33s11 -33 33 -33z" />
    <glyph glyph-name="copyright" unicode="&#xa9;" horiz-adv-x="689" 
d="M345 -7c42 0 80.334 8 115.001 24s64.667 39.333 90 70c50.667 62.667 76 147.667 76 255c0 52.667 -6.5 100.667 -19.5 144s-31.833 80.333 -56.5 111s-54.334 54.167 -89.001 70.5s-73.334 24.5 -116.001 24.5s-81.334 -8.16699 -116.001 -24.5
s-64.5 -39.833 -89.5 -70.5s-44 -67.667 -57 -111s-19.5 -91.333 -19.5 -144c0 -107.333 25.667 -192.333 77 -255c24.667 -30.667 54.334 -54 89.001 -70s73.334 -24 116.001 -24zM346.001 23c-78 0 -138.5 28.333 -181.5 85s-64.5 134.667 -64.5 234
s21.5 177.5 64.5 234.5s103.5 85.5 181.5 85.5s138 -28.333 180 -85s63 -135 63 -235s-21 -178.167 -63 -234.5s-102 -84.5 -180 -84.5zM352.001 124c20.667 0 39.834 3.33301 57.501 10s33.167 15.667 46.5 27l-18 27c-12.667 -9.33301 -26 -17 -40 -23s-29.333 -9 -46 -9
c-44.667 0 -75.667 14.833 -93 44.5s-26 77.167 -26 142.5c0 64.667 8.66699 112.167 26 142.5s47.333 45.5 90 45.5c30.667 0 58 -9.33301 82 -28l19 27c-28.667 22 -62.334 33 -101.001 33c-53.333 0 -92.666 -19 -117.999 -57s-38 -93 -38 -165
s12.667 -126.167 38 -162.5s65.666 -54.5 120.999 -54.5z" />
    <glyph glyph-name="ordfeminine" unicode="&#xaa;" horiz-adv-x="420" 
d="M303 459l-68.999 0.00195312c-62 0 -107.5 -10.833 -136.5 -32.5s-43.5 -55.5 -43.5 -101.5c0 -38.667 11 -68.834 33 -90.501s52.333 -32.5 91 -32.5c28 0 52.667 6.66699 74 20s38.666 28.666 51.999 45.999l13 -60h24v315c0 78 -38.333 117 -115 117
c-28.667 0 -54.334 -4.33301 -77.001 -13s-46 -21.334 -70 -38.001l16 -27c21.333 14.667 42.5 25.834 63.5 33.501s43.167 11.5 66.5 11.5c28.667 0 48.834 -7.33301 60.501 -22s17.5 -36.667 17.5 -66v-60zM303.001 301.002c-14 -18.667 -31.167 -34.333 -51.5 -47
s-43.833 -19 -70.5 -19c-57.333 0 -86 29.667 -86 89c0 37.333 10.5 64 31.5 80s57.5 24 109.5 24h67v-127z" />
    <glyph glyph-name="guillemotleft" unicode="&#xab;" horiz-adv-x="425" 
d="M334 52l29 20l-114 172l114 174l-29 20l-127 -194zM184 52l29 20l-114 172l114 174l-29 20l-127 -194z" />
    <glyph glyph-name="logicalnot" unicode="&#xac;" horiz-adv-x="438" 
d="M319 165h38v173h-283v-33h245v-140z" />
    <glyph glyph-name="minus" unicode="&#xad;" horiz-adv-x="504" 
d="M73 267h358v33h-358v-33z" />
    <glyph glyph-name="minus" unicode="&#x2212;" horiz-adv-x="504" 
d="M73 267h358v33h-358v-33z" />
    <glyph glyph-name="registered" unicode="&#xae;" horiz-adv-x="535" 
d="M267 224c60.667 0 109.167 20.5 145.5 61.5s54.5 99.833 54.5 176.5c0 75.333 -18.333 133.666 -55 174.999s-85 62 -145 62s-108.333 -20.667 -145 -62s-55 -99.666 -55 -174.999c0 -76.667 18.167 -135.5 54.5 -176.5s84.833 -61.5 145.5 -61.5zM267 254
c-53.333 0 -94.333 17.5 -123 52.5s-43 86.833 -43 155.5s14.333 120.334 43 155.001s69.667 52 123 52c52.667 0 93.5 -17.333 122.5 -52s43.5 -86.334 43.5 -155.001s-14.5 -120.5 -43.5 -155.5s-69.833 -52.5 -122.5 -52.5zM192 327h34.001v119h28
c10.667 0 19.167 -2.66699 25.5 -8s12.5 -16 18.5 -32l28 -79h37l-29 81c-8.66699 24.667 -20.334 39.667 -35.001 45c35.333 10 53 34.667 53 74c0 25.333 -7.5 44.333 -22.5 57s-35.5 19 -61.5 19h-76v-276zM226.001 474v99.999h40c18.667 0 31.667 -3.66699 39 -11
s11 -19.666 11 -36.999c0 -18 -3.66699 -31.167 -11 -39.5s-20.333 -12.5 -39 -12.5h-40z" />
    <glyph glyph-name="macron" unicode="&#xaf;" horiz-adv-x="541" 
d="M167 571h207v31h-207v-31z" />
    <glyph glyph-name="degree" unicode="&#xb0;" horiz-adv-x="356" 
d="M178 383c37.333 0 69 14.167 95 42.5s39 65.833 39 112.5s-13 84 -39 112s-57.667 42 -95 42s-69 -14.167 -95 -42.5s-39 -66.5 -39 -114.5c0 -47.333 12.833 -84.5 38.5 -111.5s57.5 -40.5 95.5 -40.5zM178 413c-28.667 0 -51.832 10.167 -69.499 30.5
s-26.5 51.5 -26.5 93.5c0 42.667 8.66699 74 26 94s40.666 30 69.999 30c28.667 0 51.5 -10 68.5 -30s25.5 -51.333 25.5 -94s-8.33301 -74 -25 -94s-39.667 -30 -69 -30z" />
    <glyph glyph-name="plusminus" unicode="&#xb1;" horiz-adv-x="504" 
d="M233 130h38v147h160v33h-160v168h-38v-168h-160v-33h160v-147zM73 30h358v33h-358v-33z" />
    <glyph glyph-name="twosuperior" unicode="&#xb2;" horiz-adv-x="349" 
d="M48 218l245 -0.000976562v32h-201c38 32 69.667 60.667 95 86s45 48.166 59 68.499s24 39.666 30 57.999s9 37.5 9 57.5c0 39.333 -11.333 69.5 -34 90.5s-52 31.5 -88 31.5c-21.333 0 -40.833 -2.83301 -58.5 -8.5s-35.834 -14.167 -54.501 -25.5l15 -29
c18.667 10.667 35 18.334 49 23.001s30 7 48 7c26.667 0 47.167 -7.33301 61.5 -22s21.5 -37 21.5 -67c0 -17.333 -2.5 -34.166 -7.5 -50.499s-14.333 -34.166 -28 -53.499s-33.667 -42.333 -60 -69s-60.166 -58 -101.499 -94v-35z" />
    <glyph glyph-name="threesuperior" unicode="&#xb3;" horiz-adv-x="372" 
d="M169 175c47.333 0 83.833 11.833 109.5 35.5s38.5 56.5 38.5 98.5c0 34 -7.83301 60.667 -23.5 80s-37.167 32.333 -64.5 39c22.667 8 40.167 20.5 52.5 37.5s18.5 39.167 18.5 66.5c0 32 -10.667 58.333 -32 79s-51 31 -89 31c-23.333 0 -43.666 -2.66699 -60.999 -8
s-36 -14 -56 -26l14 -27c17.333 9.33301 33.666 16.5 48.999 21.5s32 7.5 50 7.5c28 0 49.167 -7.33301 63.5 -22s21.5 -35 21.5 -61c0 -27.333 -8 -48.5 -24 -63.5s-39.333 -22.5 -70 -22.5h-33v-32h36c33.333 0 59.5 -7.66699 78.5 -23s28.5 -41 28.5 -77
c0 -68 -36.333 -102 -109 -102c-20 0 -38.5 2 -55.5 6s-33.833 9.66699 -50.5 17l-12 -28c37.333 -18 77.333 -27 120 -27z" />
    <glyph glyph-name="acute" unicode="&#xb4;" horiz-adv-x="450" 
d="M165 522l152 95l-22 31l-146 -105z" />
    <glyph glyph-name="mu" unicode="&#xb5;" horiz-adv-x="490" 
d="M128 26c17.333 -22 43.334 -33 78.001 -33c28 0 54.667 6.33301 80 19s51 30.334 77 53.001l15 -65h22v459h-38v-365c-28 -21.333 -54 -37.833 -78 -49.5s-49 -17.5 -75 -17.5c-26.667 0 -46.834 7.66699 -60.501 23s-20.5 39.666 -20.5 72.999v336h-38v-666h38v233z" />
    <glyph glyph-name="paragraph" unicode="&#xb6;" horiz-adv-x="479" 
d="M222 -87h40v739h79v-739h40v772h-180c-46 0 -81 -13.333 -105 -40s-36 -63.667 -36 -111c0 -46 13.667 -82.5 41 -109.5s63.333 -40.5 108 -40.5h13v-471z" />
    <glyph glyph-name="periodcentered" unicode="&#xb7;" horiz-adv-x="212" 
d="M106 303c10.667 0 19.834 3.83301 27.501 11.5s11.5 16.834 11.5 27.501s-3.83301 19.834 -11.5 27.501s-16.834 11.5 -27.501 11.5s-19.834 -3.83301 -27.501 -11.5s-11.5 -16.834 -11.5 -27.501s3.83301 -19.834 11.5 -27.501s16.834 -11.5 27.501 -11.5z" />
    <glyph glyph-name="periodcentered" unicode="&#x2219;" horiz-adv-x="212" 
d="M106 303c10.667 0 19.834 3.83301 27.501 11.5s11.5 16.834 11.5 27.501s-3.83301 19.834 -11.5 27.501s-16.834 11.5 -27.501 11.5s-19.834 -3.83301 -27.501 -11.5s-11.5 -16.834 -11.5 -27.501s3.83301 -19.834 11.5 -27.501s16.834 -11.5 27.501 -11.5z" />
    <glyph glyph-name="cedilla" unicode="&#xb8;" horiz-adv-x="541" 
d="M275 -197c24.667 0 43.667 6.49805 57 19.498s20 30.833 20 53.5c0 20.667 -6 37.334 -18 50.001s-28 19.334 -48 20.001l25 54h-34l-37 -86c6.66699 1.33301 12.5 2.33301 17.5 3s11.167 1 18.5 1c28 0 42 -14.333 42 -43c0 -28 -14 -42 -42 -42
c-10.667 0 -19.5 1.5 -26.5 4.5s-15.5 8.16699 -25.5 15.5l-18 -23c20 -18 43 -27 69 -27z" />
    <glyph glyph-name="onesuperior" unicode="&#xb9;" horiz-adv-x="321" 
d="M64 221h210v31h-82v392h-31l-105 -75l13 -22l83 46v-341h-88v-31z" />
    <glyph glyph-name="ordmasculine" unicode="&#xba;" horiz-adv-x="420" 
d="M223 202c50.667 0 91.002 17.8311 121.002 53.498s45 90.834 45 165.501s-15.333 129.834 -46 165.501s-71.334 53.5 -122.001 53.5s-90.834 -18 -120.501 -54s-44.5 -91.333 -44.5 -166s15.167 -129.667 45.5 -165s70.833 -53 121.5 -53zM223.002 231.998
c-42 0 -73.5 14.832 -94.5 44.499s-31.5 78.167 -31.5 145.5c0 66.667 10.333 114.5 31 143.5s52 43.5 94 43.5s73.667 -15.167 95 -45.5s32 -78.833 32 -145.5c0 -65.333 -10.5 -112.666 -31.5 -141.999s-52.5 -44 -94.5 -44z" />
    <glyph glyph-name="guillemotright" unicode="&#xbb;" horiz-adv-x="425" 
d="M241 52l127 194l-127 192l-29 -20l114 -172l-114 -174zM91 52l127 194l-127 192l-29 -20l114 -172l-114 -174z" />
    <glyph glyph-name="onequarter" unicode="&#xbc;" horiz-adv-x="921" 
d="M776 69v-106h40v106h52v33h-52v197l-40 -8v-189h-183l145 316h-42l-142 -313v-36h222zM249 0h41l378 635h-41zM64 221h210v31h-82v392h-31l-105 -75l13 -22l83 46v-341h-88v-31z" />
    <glyph glyph-name="onehalf" unicode="&#xbd;" horiz-adv-x="925" 
d="M612 0l245 -0.000976562v32h-201c38 32 69.667 60.667 95 86s45 48.166 59 68.499s24 39.666 30 57.999s9 37.5 9 57.5c0 39.333 -11.333 69.5 -34 90.5s-52 31.5 -88 31.5c-21.333 0 -40.833 -2.83301 -58.5 -8.5s-35.834 -14.167 -54.501 -25.5l15 -29
c18.667 10.667 35 18.334 49 23.001s30 7 48 7c26.667 0 47.167 -7.33301 61.5 -22s21.5 -37 21.5 -67c0 -17.333 -2.5 -34.166 -7.5 -50.499s-14.333 -34.166 -28 -53.499s-33.667 -42.333 -60 -69s-60.166 -58 -101.499 -94v-35zM248 -0.000976562h41l378 635h-41z
M64 220.999h210v31h-82v392h-31l-105 -75l13 -22l83 46v-341h-88v-31z" />
    <glyph glyph-name="threequarters" unicode="&#xbe;" horiz-adv-x="953" 
d="M808 69v-106h40v106h52v33h-52v197l-40 -8v-189h-183l145 316h-42l-142 -313v-36h222zM169 175c47.333 0 83.833 11.833 109.5 35.5s38.5 56.5 38.5 98.5c0 34 -7.83301 60.667 -23.5 80s-37.167 32.333 -64.5 39c22.667 8 40.167 20.5 52.5 37.5s18.5 39.167 18.5 66.5
c0 32 -10.667 58.333 -32 79s-51 31 -89 31c-23.333 0 -43.666 -2.66699 -60.999 -8s-36 -14 -56 -26l14 -27c17.333 9.33301 33.666 16.5 48.999 21.5s32 7.5 50 7.5c28 0 49.167 -7.33301 63.5 -22s21.5 -35 21.5 -61c0 -27.333 -8 -48.5 -24 -63.5
s-39.333 -22.5 -70 -22.5h-33v-32h36c33.333 0 59.5 -7.66699 78.5 -23s28.5 -41 28.5 -77c0 -68 -36.333 -102 -109 -102c-20 0 -38.5 2 -55.5 6s-33.833 9.66699 -50.5 17l-12 -28c37.333 -18 77.333 -27 120 -27zM291 0h41l378 635h-41z" />
    <glyph glyph-name="questiondown" unicode="&#xbf;" horiz-adv-x="411" 
d="M216 -213c26 0 52.333 4.5 79 13.5s49.334 20.167 68.001 33.5l-15 27c-18 -11.333 -39.333 -21 -64 -29s-47.667 -12 -69 -12c-38 0 -65.5 9 -82.5 27s-25.5 48 -25.5 90c0 34.667 6.16699 61.5 18.5 80.5s29.833 37.833 52.5 56.5l8 6
c22.667 18.667 39.5 37.167 50.5 55.5s16.5 46.5 16.5 84.5v73h-38v-71c0 -17.333 -1 -31.833 -3 -43.5s-5.33301 -21.667 -10 -30s-10.834 -16.166 -18.501 -23.499s-18.834 -17 -33.501 -29c-12.667 -10.667 -23.167 -20 -31.5 -28s-16.166 -17.667 -23.499 -29
c-18.667 -28.667 -28 -63.334 -28 -104.001c0 -51.333 13.333 -88.833 40 -112.5s63 -35.5 109 -35.5zM233 387c10.667 0 19.834 4 27.501 12s11.5 17.333 11.5 28s-3.83301 19.834 -11.5 27.501s-16.834 11.5 -27.501 11.5s-19.834 -3.83301 -27.501 -11.5
s-11.5 -16.834 -11.5 -27.501s3.83301 -20 11.5 -28s16.834 -12 27.501 -12z" />
    <glyph glyph-name="Agrave" unicode="&#xc0;" horiz-adv-x="536" 
d="M147 238h242l73 -238h41l-212 685h-42l-217 -685h40zM378 272h-220.002l81 258c7.33301 22 13.833 44.167 19.5 66.5s9.5 40.166 11.5 53.499h1c2.66699 -15.333 6.33398 -33.666 11.001 -54.999s10.334 -43 17.001 -65zM327.998 733l16 21l-146 105l-22 -31z" />
    <glyph glyph-name="Aacute" unicode="&#xc1;" horiz-adv-x="536" 
d="M147 238h242l73 -238h41l-212 685h-42l-217 -685h40zM378 272h-220.002l81 258c7.33301 22 13.833 44.167 19.5 66.5s9.5 40.166 11.5 53.499h1c2.66699 -15.333 6.33398 -33.666 11.001 -54.999s10.334 -43 17.001 -65zM207.998 733l152 95l-22 31l-146 -105z" />
    <glyph glyph-name="Acircumflex" unicode="&#xc2;" horiz-adv-x="536" 
d="M147 238h242l73 -238h41l-212 685h-42l-217 -685h40zM378 272h-220.002l81 258c7.33301 22 13.833 44.167 19.5 66.5s9.5 40.166 11.5 53.499h1c2.66699 -15.333 6.33398 -33.666 11.001 -54.999s10.334 -43 17.001 -65zM172.998 735l96 90l98 -90l18 18l-105 110h-22
l-103 -110z" />
    <glyph glyph-name="Atilde" unicode="&#xc3;" horiz-adv-x="536" 
d="M147 238h242l73 -238h41l-212 685h-42l-217 -685h40zM378 272h-220.002l81 258c7.33301 22 13.833 44.167 19.5 66.5s9.5 40.166 11.5 53.499h1c2.66699 -15.333 6.33398 -33.666 11.001 -54.999s10.334 -43 17.001 -65zM170.998 749
c7.33301 14 13.832 24.167 19.499 30.5s14.167 9.5 25.5 9.5c10 0 25.667 -5.66699 47 -17c24.667 -12.667 43.667 -19 57 -19c32 0 56.333 20.667 73 62l-27 12c-7.33301 -14 -13.833 -24.167 -19.5 -30.5s-14.167 -9.5 -25.5 -9.5c-10 0 -25.667 5.66699 -47 17
c-24.667 12.667 -43.667 19 -57 19c-31.333 0 -55.666 -20.667 -72.999 -62z" />
    <glyph glyph-name="Adieresis" unicode="&#xc4;" horiz-adv-x="536" 
d="M147 238h242l73 -238h41l-212 685h-42l-217 -685h40zM378 272h-220.002l81 258c7.33301 22 13.833 44.167 19.5 66.5s9.5 40.166 11.5 53.499h1c2.66699 -15.333 6.33398 -33.666 11.001 -54.999s10.334 -43 17.001 -65zM342.998 751c21.333 0 32 11 32 33s-11 33 -33 33
c-21.333 0 -32 -11 -32 -33s11 -33 33 -33zM194.998 751c21.333 0 32 11 32 33s-11 33 -33 33c-21.333 0 -32 -11 -32 -33s11 -33 33 -33z" />
    <glyph glyph-name="Aring" unicode="&#xc5;" horiz-adv-x="536" 
d="M147 238h242l73 -238h41l-212 685h-42l-217 -685h40zM378 272h-220.002l81 258c7.33301 22 13.833 44.167 19.5 66.5s9.5 40.166 11.5 53.499h1c2.66699 -15.333 6.33398 -33.666 11.001 -54.999s10.334 -43 17.001 -65zM268.998 737c23.333 0 42 8.33301 56 25
s21 36 21 58c0 22.667 -7 42.334 -21 59.001s-32.667 25 -56 25s-42.166 -8.33301 -56.499 -25s-21.5 -36.334 -21.5 -59.001c0 -22 7.16699 -41.333 21.5 -58s33.166 -25 56.499 -25zM268.998 764c-13.333 0 -24.333 4.83301 -33 14.5s-13 23.5 -13 41.5
c0 18.667 4.16699 32.834 12.5 42.501s19.5 14.5 33.5 14.5c12.667 0 23.334 -4.83301 32.001 -14.5s13 -23.834 13 -42.501c0 -18 -4.33301 -31.833 -13 -41.5s-19.334 -14.5 -32.001 -14.5z" />
    <glyph glyph-name="AE" unicode="&#xc6;" horiz-adv-x="857" 
d="M212 238h231v-238h340v33h-300v312h236v33h-236v274h289v33h-350l-388 -685h43zM443 272l-212 -0.000976562l137 242c18.667 33.333 34.667 63.166 48 89.499l28 55.5h1c0 -11.333 -0.333008 -31.166 -1 -59.499s-1 -60.166 -1 -95.499v-232z" />
    <glyph glyph-name="Ccedilla" unicode="&#xc7;" horiz-adv-x="528" 
d="M269 -4l-35 -82.002c6.66699 1.33301 12.5 2.33301 17.5 3s11.167 1 18.5 1c28 0 42 -14.333 42 -43c0 -28 -14 -42 -42 -42c-10.667 0 -19.5 1.5 -26.5 4.5s-15.5 8.16699 -25.5 15.5l-18 -23c20 -18 43 -27 69 -27c24.667 0 43.667 6.5 57 19.5s20 30.833 20 53.5
c0 20.667 -6 37.334 -18 50.001s-28 19.334 -48 20.001l22 47h15c32.667 0 63.167 5.33301 91.5 16s52.833 25 73.5 43l-20 28c-20 -16 -41.833 -28.833 -65.5 -38.5s-50.167 -14.5 -79.5 -14.5c-76 0 -129.333 25.167 -160 75.5s-46 129.833 -46 238.5
c0 106.667 15.167 186.167 45.5 238.5s81.5 78.5 153.5 78.5c53.333 0 100 -15.667 140 -47l20 28c-22 16.667 -46.167 29.667 -72.5 39s-55.5 14 -87.5 14c-82 0 -142.5 -30 -181.5 -90s-58.5 -147.667 -58.5 -263c0 -104.667 15.667 -185.5 47 -242.5s82 -90.5 152 -100.5
z" />
    <glyph glyph-name="Egrave" unicode="&#xc8;" horiz-adv-x="489" 
d="M98 0h340v33h-300v312h236v33h-236v274h289v33h-329v-685zM313 733l16 21l-146 105l-22 -31z" />
    <glyph glyph-name="Eacute" unicode="&#xc9;" horiz-adv-x="489" 
d="M98 0h340v33h-300v312h236v33h-236v274h289v33h-329v-685zM212 733l152 95l-22 31l-146 -105z" />
    <glyph glyph-name="Ecircumflex" unicode="&#xca;" horiz-adv-x="489" 
d="M98 0h340v33h-300v312h236v33h-236v274h289v33h-329v-685zM166 735l96 90l98 -90l18 18l-105 110h-22l-103 -110z" />
    <glyph glyph-name="Edieresis" unicode="&#xcb;" horiz-adv-x="489" 
d="M98 0h340v33h-300v312h236v33h-236v274h289v33h-329v-685zM333 751c21.333 0 32 11 32 33s-11 33 -33 33c-21.333 0 -32 -11 -32 -33s11 -33 33 -33zM185 751c21.333 0 32 11 32 33s-11 33 -33 33c-21.333 0 -32 -11 -32 -33s11 -33 33 -33z" />
    <glyph glyph-name="Igrave" unicode="&#xcc;" horiz-adv-x="302" 
d="M131 656v-627l-72 -5v-24h184v24l-72 5v627l72 5v24h-184v-24zM202 733l16 21l-146 105l-22 -31z" />
    <glyph glyph-name="Iacute" unicode="&#xcd;" horiz-adv-x="302" 
d="M131 656v-627l-72 -5v-24h184v24l-72 5v627l72 5v24h-184v-24zM106 733l152 95l-22 31l-146 -105z" />
    <glyph glyph-name="Icircumflex" unicode="&#xce;" horiz-adv-x="302" 
d="M131 656v-627l-72 -5v-24h184v24l-72 5v627l72 5v24h-184v-24zM56 735l96 90l98 -90l18 18l-105 110h-22l-103 -110z" />
    <glyph glyph-name="Idieresis" unicode="&#xcf;" horiz-adv-x="302" 
d="M131 656v-627l-72 -5v-24h184v24l-72 5v627l72 5v24h-184v-24zM226 751c21.333 0 32 11 32 33s-11 33 -33 33c-21.333 0 -32 -11 -32 -33s11 -33 33 -33zM78 751c21.333 0 32 11 32 33s-11 33 -33 33c-21.333 0 -32 -11 -32 -33s11 -33 33 -33z" />
    <glyph glyph-name="Eth" unicode="&#xd0;" horiz-adv-x="576" 
d="M98 325v-324.999h141c96 0 164.5 25.333 205.5 76s61.5 135 61.5 253c0 64.667 -4.66699 119.167 -14 163.5s-24.333 80.666 -45 108.999s-48.167 49.333 -82.5 63s-76.833 20.5 -127.5 20.5h-139v-327h-80v-33h80zM138 358.001l-0.000976562 294h104
c44 0 80.333 -6.16699 109 -18.5s51.334 -31.166 68.001 -56.499s28.5 -57.833 35.5 -97.5s10.5 -88.834 10.5 -147.501c0 -54 -3.5 -99.5 -10.5 -136.5s-18.833 -67.167 -35.5 -90.5c-33.333 -48 -92 -72 -176 -72h-105v292h159v33h-159z" />
    <glyph glyph-name="Ntilde" unicode="&#xd1;" horiz-adv-x="593" 
d="M98 0h38v489c0 42.667 -0.333008 76.5 -1 101.5s-2 47.833 -4 68.5h1c7.33301 -21.333 16 -44.333 26 -69s22 -51 36 -79l252 -511h49v685h-38v-508c0 -34 0.333008 -60.667 1 -80s2 -40 4 -62h-1c-7.33301 20.667 -15 40.5 -23 59.5s-19 42.5 -33 70.5l-254 520h-53
v-685zM204 749c7.33301 14 13.832 24.167 19.499 30.5s14.167 9.5 25.5 9.5c10 0 25.667 -5.66699 47 -17c24.667 -12.667 43.667 -19 57 -19c32 0 56.333 20.667 73 62l-27 12c-7.33301 -14 -13.833 -24.167 -19.5 -30.5s-14.167 -9.5 -25.5 -9.5
c-10 0 -25.667 5.66699 -47 17c-24.667 12.667 -43.667 19 -57 19c-31.333 0 -55.666 -20.667 -72.999 -62z" />
    <glyph glyph-name="Ograve" unicode="&#xd2;" horiz-adv-x="608" 
d="M306 -7c80.667 0 139.502 28.833 176.502 86.5s55.5 145.167 55.5 262.5c0 112.667 -19.833 199.167 -59.5 259.5s-97.834 90.5 -174.501 90.5s-134.834 -30.333 -174.501 -91s-59.5 -148 -59.5 -262s19.167 -200.167 57.5 -258.5s97.833 -87.5 178.5 -87.5zM305.002 26
c-68 0 -117.333 25.833 -148 77.5s-46 130.834 -46 237.501c0 105.333 15.667 184.666 47 237.999s80 80 146 80s114.667 -27 146 -81s47 -134.333 47 -241c0 -105.333 -15 -183.5 -45 -234.5s-79 -76.5 -147 -76.5zM364.002 733l16 21l-146 105l-22 -31z" />
    <glyph glyph-name="Oacute" unicode="&#xd3;" horiz-adv-x="608" 
d="M306 -7c80.667 0 139.502 28.833 176.502 86.5s55.5 145.167 55.5 262.5c0 112.667 -19.833 199.167 -59.5 259.5s-97.834 90.5 -174.501 90.5s-134.834 -30.333 -174.501 -91s-59.5 -148 -59.5 -262s19.167 -200.167 57.5 -258.5s97.833 -87.5 178.5 -87.5zM305.002 26
c-68 0 -117.333 25.833 -148 77.5s-46 130.834 -46 237.501c0 105.333 15.667 184.666 47 237.999s80 80 146 80s114.667 -27 146 -81s47 -134.333 47 -241c0 -105.333 -15 -183.5 -45 -234.5s-79 -76.5 -147 -76.5zM244.002 733l152 95l-22 31l-146 -105z" />
    <glyph glyph-name="Ocircumflex" unicode="&#xd4;" horiz-adv-x="608" 
d="M306 -7c80.667 0 139.502 28.833 176.502 86.5s55.5 145.167 55.5 262.5c0 112.667 -19.833 199.167 -59.5 259.5s-97.834 90.5 -174.501 90.5s-134.834 -30.333 -174.501 -91s-59.5 -148 -59.5 -262s19.167 -200.167 57.5 -258.5s97.833 -87.5 178.5 -87.5zM305.002 26
c-68 0 -117.333 25.833 -148 77.5s-46 130.834 -46 237.501c0 105.333 15.667 184.666 47 237.999s80 80 146 80s114.667 -27 146 -81s47 -134.333 47 -241c0 -105.333 -15 -183.5 -45 -234.5s-79 -76.5 -147 -76.5zM209.002 735l96 90l98 -90l18 18l-105 110h-22l-103 -110
z" />
    <glyph glyph-name="Otilde" unicode="&#xd5;" horiz-adv-x="608" 
d="M306 -7c80.667 0 139.502 28.833 176.502 86.5s55.5 145.167 55.5 262.5c0 112.667 -19.833 199.167 -59.5 259.5s-97.834 90.5 -174.501 90.5s-134.834 -30.333 -174.501 -91s-59.5 -148 -59.5 -262s19.167 -200.167 57.5 -258.5s97.833 -87.5 178.5 -87.5zM305.002 26
c-68 0 -117.333 25.833 -148 77.5s-46 130.834 -46 237.501c0 105.333 15.667 184.666 47 237.999s80 80 146 80s114.667 -27 146 -81s47 -134.333 47 -241c0 -105.333 -15 -183.5 -45 -234.5s-79 -76.5 -147 -76.5zM207.002 749c7.33301 14 13.832 24.167 19.499 30.5
s14.167 9.5 25.5 9.5c10 0 25.667 -5.66699 47 -17c24.667 -12.667 43.667 -19 57 -19c32 0 56.333 20.667 73 62l-27 12c-7.33301 -14 -13.833 -24.167 -19.5 -30.5s-14.167 -9.5 -25.5 -9.5c-10 0 -25.667 5.66699 -47 17c-24.667 12.667 -43.667 19 -57 19
c-31.333 0 -55.666 -20.667 -72.999 -62z" />
    <glyph glyph-name="Odieresis" unicode="&#xd6;" horiz-adv-x="608" 
d="M306 -7c80.667 0 139.502 28.833 176.502 86.5s55.5 145.167 55.5 262.5c0 112.667 -19.833 199.167 -59.5 259.5s-97.834 90.5 -174.501 90.5s-134.834 -30.333 -174.501 -91s-59.5 -148 -59.5 -262s19.167 -200.167 57.5 -258.5s97.833 -87.5 178.5 -87.5zM305.002 26
c-68 0 -117.333 25.833 -148 77.5s-46 130.834 -46 237.501c0 105.333 15.667 184.666 47 237.999s80 80 146 80s114.667 -27 146 -81s47 -134.333 47 -241c0 -105.333 -15 -183.5 -45 -234.5s-79 -76.5 -147 -76.5zM379.002 751c21.333 0 32 11 32 33s-11 33 -33 33
c-21.333 0 -32 -11 -32 -33s11 -33 33 -33zM231.002 751c21.333 0 32 11 32 33s-11 33 -33 33c-21.333 0 -32 -11 -32 -33s11 -33 33 -33z" />
    <glyph glyph-name="multiply" unicode="&#xd7;" horiz-adv-x="448" 
d="M105 118l118 135l119 -135l26 22l-122 139l122 139l-25 22l-119 -135l-118 135l-26 -22l122 -139l-122 -139z" />
    <glyph glyph-name="Oslash" unicode="&#xd8;" horiz-adv-x="608" 
d="M483 595l62.999 104.001l-30 17l-55 -91c-39.333 44.667 -91.666 67 -156.999 67c-76.667 0 -134.834 -30.333 -174.501 -91s-59.5 -148 -59.5 -262c0 -116 19.333 -202.667 58 -260l-67 -110l30 -17l60 99c38.667 -38.667 90.334 -58 155.001 -58
c80.667 0 139.5 28.833 176.5 86.5s55.5 145.167 55.5 262.5c0 109.333 -18.333 193.666 -55 252.999zM148.999 114.001c-25.333 50 -38.001 125.668 -38.001 227.001c0 105.333 15.667 184.666 47 237.999s80 80 146 80c60.667 0 106.334 -22 137.001 -66zM460.998 559.002
c24 -52 36 -126 36 -222c0 -105.333 -15 -183.5 -45 -234.5s-79 -76.5 -147 -76.5c-59.333 0 -104.333 18.667 -135 56z" />
    <glyph glyph-name="Ugrave" unicode="&#xd9;" horiz-adv-x="587" 
d="M449 104c-20.667 -20.667 -46.5 -38.667 -77.5 -54s-66.167 -23 -105.5 -23c-44 0 -77 13.167 -99 39.5s-33 69.833 -33 130.5v488h-40v-494c0 -68 15.167 -118 45.5 -150s72.833 -48 127.5 -48c36.667 0 70.5 7.33301 101.5 22s58.167 33 81.5 55l14 -70h25v685h-40
v-581zM336 733l16 21l-146 105l-22 -31z" />
    <glyph glyph-name="Uacute" unicode="&#xda;" horiz-adv-x="587" 
d="M449 104c-20.667 -20.667 -46.5 -38.667 -77.5 -54s-66.167 -23 -105.5 -23c-44 0 -77 13.167 -99 39.5s-33 69.833 -33 130.5v488h-40v-494c0 -68 15.167 -118 45.5 -150s72.833 -48 127.5 -48c36.667 0 70.5 7.33301 101.5 22s58.167 33 81.5 55l14 -70h25v685h-40
v-581zM253 733l152 95l-22 31l-146 -105z" />
    <glyph glyph-name="Ucircumflex" unicode="&#xdb;" horiz-adv-x="587" 
d="M449 104c-20.667 -20.667 -46.5 -38.667 -77.5 -54s-66.167 -23 -105.5 -23c-44 0 -77 13.167 -99 39.5s-33 69.833 -33 130.5v488h-40v-494c0 -68 15.167 -118 45.5 -150s72.833 -48 127.5 -48c36.667 0 70.5 7.33301 101.5 22s58.167 33 81.5 55l14 -70h25v685h-40
v-581zM198 735l96 90l98 -90l18 18l-105 110h-22l-103 -110z" />
    <glyph glyph-name="Udieresis" unicode="&#xdc;" horiz-adv-x="587" 
d="M449 104c-20.667 -20.667 -46.5 -38.667 -77.5 -54s-66.167 -23 -105.5 -23c-44 0 -77 13.167 -99 39.5s-33 69.833 -33 130.5v488h-40v-494c0 -68 15.167 -118 45.5 -150s72.833 -48 127.5 -48c36.667 0 70.5 7.33301 101.5 22s58.167 33 81.5 55l14 -70h25v685h-40
v-581zM368 751c21.333 0 32 11 32 33s-11 33 -33 33c-21.333 0 -32 -11 -32 -33s11 -33 33 -33zM220 751c21.333 0 32 11 32 33s-11 33 -33 33c-21.333 0 -32 -11 -32 -33s11 -33 33 -33z" />
    <glyph glyph-name="Yacute" unicode="&#xdd;" horiz-adv-x="538" 
d="M245 0h40v264l198 421h-41l-142 -304c-8.66699 -19.333 -15 -34.166 -19 -44.499l-14 -37.5l-1 -2c-4 12 -8.33301 23.667 -13 35s-12 27.666 -22 48.999l-145 304h-42l201 -420v-265zM239 733l152 95l-22 31l-146 -105z" />
    <glyph glyph-name="Thorn" unicode="&#xde;" horiz-adv-x="507" 
d="M98 0h39.999v178h119c60 0 106.667 16.833 140 50.5s50 83.5 50 149.5c0 62 -16.667 109.333 -50 142s-83.666 49 -150.999 49h-108v116h-40v-685zM137.999 211l0.000976562 324.999h104c57.333 0 98.666 -12.667 123.999 -38s38 -65.666 38 -120.999
c0 -57.333 -12.333 -99.333 -37 -126s-62.667 -40 -114 -40h-115z" />
    <glyph glyph-name="germandbls" unicode="&#xdf;" horiz-adv-x="509" 
d="M300 -7c47.333 0 85.6689 13.5 115.002 40.5s44 65.5 44 115.5c0 20.667 -3 39 -9 55s-14 30.333 -24 43s-20.333 23.5 -31 32.5s-25 19.833 -43 32.5l-7 5c-29.333 21.333 -48.333 36.333 -57 45s-13 19 -13 31c0 8.66699 3.16699 17.334 9.5 26.001
s16.166 20.334 29.499 35.001c22 22.667 39.167 43.834 51.5 63.501s18.5 42.5 18.5 68.5c0 36.667 -11.5 67 -34.5 91s-55.833 36 -98.5 36c-48.667 0 -87.667 -17.667 -117 -53s-44 -84.333 -44 -147v-513h38v511c0 54 10.167 95.833 30.5 125.5s50.833 44.5 91.5 44.5
c31.333 0 55 -8.33301 71 -25s24 -39.667 24 -69c0 -24 -5.33301 -44.5 -16 -61.5s-26 -36.167 -46 -57.5c-16 -16.667 -27.667 -30.334 -35 -41.001s-11 -22.334 -11 -35.001c0 -20 6.5 -36.833 19.5 -50.5s33.5 -29.834 61.5 -48.501
c5.33301 -4 8.66602 -6.33301 9.99902 -7c29.333 -20 51.833 -39.833 67.5 -59.5s23.5 -45.5 23.5 -77.5c0 -40.667 -10.167 -71.5 -30.5 -92.5s-48.833 -31.5 -85.5 -31.5c-18 0 -34.5 1.66699 -49.5 5s-28.167 7.33301 -39.5 12l-10 -30l6 -2
c12.667 -5.33301 25.5 -9.5 38.5 -12.5s30.167 -4.5 51.5 -4.5z" />
    <glyph glyph-name="agrave" unicode="&#xe0;" 
d="M329 270l-77.9971 0.000976562c-66 0 -114.333 -11.833 -145 -35.5s-46 -59.834 -46 -108.501c0 -42 11.667 -74.667 35 -98s55.666 -35 96.999 -35c31.333 0 58.833 7.33301 82.5 22s42.167 31.667 55.5 51l15 -66h22v340c0 84 -40.667 126 -122 126
c-31.333 0 -59.333 -4.83301 -84 -14.5s-49.334 -23.5 -74.001 -41.5l16 -26c24 16.667 47.167 29.167 69.5 37.5s46.166 12.5 71.499 12.5c30.667 0 52.5 -8 65.5 -24s19.5 -40.333 19.5 -73v-67zM329.003 100.001c-15.333 -20.667 -34.168 -38 -56.501 -52
s-48.166 -21 -77.499 -21c-64 0 -96 32.667 -96 98c0 40.667 11.667 69.667 35 87s63.333 26 120 26h75v-138zM291.001 522.001l16 21l-146 105l-22 -31z" />
    <glyph glyph-name="aacute" unicode="&#xe1;" 
d="M329 270l-77.9971 0.000976562c-66 0 -114.333 -11.833 -145 -35.5s-46 -59.834 -46 -108.501c0 -42 11.667 -74.667 35 -98s55.666 -35 96.999 -35c31.333 0 58.833 7.33301 82.5 22s42.167 31.667 55.5 51l15 -66h22v340c0 84 -40.667 126 -122 126
c-31.333 0 -59.333 -4.83301 -84 -14.5s-49.334 -23.5 -74.001 -41.5l16 -26c24 16.667 47.167 29.167 69.5 37.5s46.166 12.5 71.499 12.5c30.667 0 52.5 -8 65.5 -24s19.5 -40.333 19.5 -73v-67zM329.003 100.001c-15.333 -20.667 -34.168 -38 -56.501 -52
s-48.166 -21 -77.499 -21c-64 0 -96 32.667 -96 98c0 40.667 11.667 69.667 35 87s63.333 26 120 26h75v-138zM176.001 522.001l152 95l-22 31l-146 -105z" />
    <glyph glyph-name="acircumflex" unicode="&#xe2;" 
d="M329 270l-77.9971 0.000976562c-66 0 -114.333 -11.833 -145 -35.5s-46 -59.834 -46 -108.501c0 -42 11.667 -74.667 35 -98s55.666 -35 96.999 -35c31.333 0 58.833 7.33301 82.5 22s42.167 31.667 55.5 51l15 -66h22v340c0 84 -40.667 126 -122 126
c-31.333 0 -59.333 -4.83301 -84 -14.5s-49.334 -23.5 -74.001 -41.5l16 -26c24 16.667 47.167 29.167 69.5 37.5s46.166 12.5 71.499 12.5c30.667 0 52.5 -8 65.5 -24s19.5 -40.333 19.5 -73v-67zM329.003 100.001c-15.333 -20.667 -34.168 -38 -56.501 -52
s-48.166 -21 -77.499 -21c-64 0 -96 32.667 -96 98c0 40.667 11.667 69.667 35 87s63.333 26 120 26h75v-138zM141.001 524.001l96 90l98 -90l18 18l-105 110h-22l-103 -110z" />
    <glyph glyph-name="atilde" unicode="&#xe3;" 
d="M329 270l-77.9971 0.000976562c-66 0 -114.333 -11.833 -145 -35.5s-46 -59.834 -46 -108.501c0 -42 11.667 -74.667 35 -98s55.666 -35 96.999 -35c31.333 0 58.833 7.33301 82.5 22s42.167 31.667 55.5 51l15 -66h22v340c0 84 -40.667 126 -122 126
c-31.333 0 -59.333 -4.83301 -84 -14.5s-49.334 -23.5 -74.001 -41.5l16 -26c24 16.667 47.167 29.167 69.5 37.5s46.166 12.5 71.499 12.5c30.667 0 52.5 -8 65.5 -24s19.5 -40.333 19.5 -73v-67zM329.003 100.001c-15.333 -20.667 -34.168 -38 -56.501 -52
s-48.166 -21 -77.499 -21c-64 0 -96 32.667 -96 98c0 40.667 11.667 69.667 35 87s63.333 26 120 26h75v-138zM129.001 538.001c7.33301 14 13.832 24.167 19.499 30.5s14.167 9.5 25.5 9.5c10 0 25.667 -5.66699 47 -17c24.667 -12.667 43.667 -19 57 -19
c32 0 56.333 20.667 73 62l-27 12c-7.33301 -14 -13.833 -24.167 -19.5 -30.5s-14.167 -9.5 -25.5 -9.5c-10 0 -25.667 5.66699 -47 17c-24.667 12.667 -43.667 19 -57 19c-31.333 0 -55.666 -20.667 -72.999 -62z" />
    <glyph glyph-name="adieresis" unicode="&#xe4;" 
d="M329 270l-77.9971 0.000976562c-66 0 -114.333 -11.833 -145 -35.5s-46 -59.834 -46 -108.501c0 -42 11.667 -74.667 35 -98s55.666 -35 96.999 -35c31.333 0 58.833 7.33301 82.5 22s42.167 31.667 55.5 51l15 -66h22v340c0 84 -40.667 126 -122 126
c-31.333 0 -59.333 -4.83301 -84 -14.5s-49.334 -23.5 -74.001 -41.5l16 -26c24 16.667 47.167 29.167 69.5 37.5s46.166 12.5 71.499 12.5c30.667 0 52.5 -8 65.5 -24s19.5 -40.333 19.5 -73v-67zM329.003 100.001c-15.333 -20.667 -34.168 -38 -56.501 -52
s-48.166 -21 -77.499 -21c-64 0 -96 32.667 -96 98c0 40.667 11.667 69.667 35 87s63.333 26 120 26h75v-138zM307.001 540.001c21.333 0 32 11 32 33s-11 33 -33 33c-21.333 0 -32 -11 -32 -33s11 -33 33 -33zM159.001 540.001c21.333 0 32 11 32 33s-11 33 -33 33
c-21.333 0 -32 -11 -32 -33s11 -33 33 -33z" />
    <glyph glyph-name="aring" unicode="&#xe5;" 
d="M329 270l-77.9971 0.000976562c-66 0 -114.333 -11.833 -145 -35.5s-46 -59.834 -46 -108.501c0 -42 11.667 -74.667 35 -98s55.666 -35 96.999 -35c31.333 0 58.833 7.33301 82.5 22s42.167 31.667 55.5 51l15 -66h22v340c0 84 -40.667 126 -122 126
c-31.333 0 -59.333 -4.83301 -84 -14.5s-49.334 -23.5 -74.001 -41.5l16 -26c24 16.667 47.167 29.167 69.5 37.5s46.166 12.5 71.499 12.5c30.667 0 52.5 -8 65.5 -24s19.5 -40.333 19.5 -73v-67zM329.003 100.001c-15.333 -20.667 -34.168 -38 -56.501 -52
s-48.166 -21 -77.499 -21c-64 0 -96 32.667 -96 98c0 40.667 11.667 69.667 35 87s63.333 26 120 26h75v-138zM235.001 526.001c23.333 0 42 8.33301 56 25s21 36 21 58c0 22.667 -7 42.334 -21 59.001s-32.667 25 -56 25s-42.166 -8.33301 -56.499 -25
s-21.5 -36.334 -21.5 -59.001c0 -22 7.16699 -41.333 21.5 -58s33.166 -25 56.499 -25zM235.001 553.001c-13.333 0 -24.333 4.83301 -33 14.5s-13 23.5 -13 41.5c0 18.667 4.16699 32.834 12.5 42.501s19.5 14.5 33.5 14.5c12.667 0 23.334 -4.83301 32.001 -14.5
s13 -23.834 13 -42.501c0 -18 -4.33301 -31.833 -13 -41.5s-19.334 -14.5 -32.001 -14.5z" />
    <glyph glyph-name="ae" unicode="&#xe6;" horiz-adv-x="719" 
d="M329 266l-77.998 -0.000976562c-66 0 -114.333 -11.5 -145 -34.5s-46 -58.833 -46 -107.5c0 -41.333 11.667 -73.5 35 -96.5s55.666 -34.5 96.999 -34.5c35.333 0 66.166 8.83301 92.499 26.5s49.5 40.834 69.5 69.501c14.667 -34 35.667 -58.5 63 -73.5
s59 -22.5 95 -22.5c28 0 53.333 4 76 12s43.667 19.333 63 34l-22 27c-16 -12.667 -33.5 -22.667 -52.5 -30s-41.167 -11 -66.5 -11c-49.333 0 -85.666 15.833 -108.999 47.5s-35 84.5 -35 158.5v4h291v11c0 146.667 -52.667 220 -158 220
c-31.333 0 -58.833 -7.16699 -82.5 -21.5s-42.5 -36.833 -56.5 -67.5c-11.333 59.333 -49.666 89 -114.999 89c-31.333 0 -59.333 -4.83301 -84 -14.5s-49.334 -23.5 -74.001 -41.5l16 -26c24 16.667 47.167 29.167 69.5 37.5s46.166 12.5 71.499 12.5
c30 0 51.667 -8.16699 65 -24.5s20 -40.5 20 -72.5v-71zM340.002 113.999c-18 -26 -39.333 -47 -64 -63s-51.667 -24 -81 -24c-64 0 -96 32 -96 96c0 40 11.667 68.667 35 86s63.333 26 120 26h75c0 -21.333 0.833008 -41 2.5 -59s4.5 -38.667 8.5 -62zM367.002 265.999
c4 60 17.168 102.999 39.501 128.999s53.166 39 92.499 39s69 -12.667 89 -38s30 -68.666 30 -129.999h-251z" />
    <glyph glyph-name="ccedilla" unicode="&#xe7;" horiz-adv-x="418" 
d="M206 -5l-35.002 -81c6.66699 1.33301 12.5 2.33301 17.5 3s11.167 1 18.5 1c28 0 42 -14.333 42 -43c0 -28 -14 -42 -42 -42c-10.667 0 -19.5 1.5 -26.5 4.5s-15.5 8.16699 -25.5 15.5l-18 -23c20 -18 43 -27 69 -27c24.667 0 43.667 6.5 57 19.5s20 30.833 20 53.5
c0 20.667 -6 37.334 -18 50.001s-28 19.334 -48 20.001l22 47c30.667 0 57 5.66699 79 17s41 26 57 44l-27 21c-12 -14.667 -26.5 -26.667 -43.5 -36s-38.833 -14 -65.5 -14c-46 0 -80.5 15.833 -103.5 47.5s-34.5 84.5 -34.5 158.5c0 72 11.667 123.833 35 155.5
s56.666 47.5 99.999 47.5c24 0 43.833 -3.83301 59.5 -11.5s30.834 -19.5 45.501 -35.5l24 25c-16.667 17.333 -35 30.666 -55 39.999s-44 14 -72 14c-25.333 0 -48.666 -4.33301 -69.999 -13s-39.666 -22.334 -54.999 -41.001c-34 -40.667 -51 -102 -51 -184
c0 -74 13 -129.5 39 -166.5s61 -59.167 105 -66.5z" />
    <glyph glyph-name="egrave" unicode="&#xe8;" 
d="M101 230l291.001 -0.000976562v16c0 146.667 -52.667 220 -158 220c-24.667 0 -47.334 -4.33301 -68.001 -13s-38.834 -22.5 -54.501 -41.5s-27.834 -43.833 -36.501 -74.5s-13 -67 -13 -109c0 -44 4.83301 -81.167 14.5 -111.5s22.834 -54.666 39.501 -72.999
s36 -31.333 58 -39s46.333 -11.5 73 -11.5c28 0 53.333 4 76 12s43.667 19.333 63 34l-22 27c-16 -12.667 -33.5 -22.667 -52.5 -30s-41.167 -11 -66.5 -11c-49.333 0 -85.666 15.833 -108.999 47.5s-35 84.167 -35 157.5zM102.001 260.999
c2.66699 62 15.333 106.333 38 133s54 40 94 40c39.333 0 69 -13.333 89 -40s30 -71 30 -133h-251zM289 521.999l16 21l-146 105l-22 -31z" />
    <glyph glyph-name="eacute" unicode="&#xe9;" 
d="M101 230l291.001 -0.000976562v16c0 146.667 -52.667 220 -158 220c-24.667 0 -47.334 -4.33301 -68.001 -13s-38.834 -22.5 -54.501 -41.5s-27.834 -43.833 -36.501 -74.5s-13 -67 -13 -109c0 -44 4.83301 -81.167 14.5 -111.5s22.834 -54.666 39.501 -72.999
s36 -31.333 58 -39s46.333 -11.5 73 -11.5c28 0 53.333 4 76 12s43.667 19.333 63 34l-22 27c-16 -12.667 -33.5 -22.667 -52.5 -30s-41.167 -11 -66.5 -11c-49.333 0 -85.666 15.833 -108.999 47.5s-35 84.167 -35 157.5zM102.001 260.999
c2.66699 62 15.333 106.333 38 133s54 40 94 40c39.333 0 69 -13.333 89 -40s30 -71 30 -133h-251zM176 521.999l152 95l-22 31l-146 -105z" />
    <glyph glyph-name="ecircumflex" unicode="&#xea;" 
d="M101 230l291.001 -0.000976562v16c0 146.667 -52.667 220 -158 220c-24.667 0 -47.334 -4.33301 -68.001 -13s-38.834 -22.5 -54.501 -41.5s-27.834 -43.833 -36.501 -74.5s-13 -67 -13 -109c0 -44 4.83301 -81.167 14.5 -111.5s22.834 -54.666 39.501 -72.999
s36 -31.333 58 -39s46.333 -11.5 73 -11.5c28 0 53.333 4 76 12s43.667 19.333 63 34l-22 27c-16 -12.667 -33.5 -22.667 -52.5 -30s-41.167 -11 -66.5 -11c-49.333 0 -85.666 15.833 -108.999 47.5s-35 84.167 -35 157.5zM102.001 260.999
c2.66699 62 15.333 106.333 38 133s54 40 94 40c39.333 0 69 -13.333 89 -40s30 -71 30 -133h-251zM136 523.999l96 90l98 -90l18 18l-105 110h-22l-103 -110z" />
    <glyph glyph-name="edieresis" unicode="&#xeb;" 
d="M101 230l291.001 -0.000976562v16c0 146.667 -52.667 220 -158 220c-24.667 0 -47.334 -4.33301 -68.001 -13s-38.834 -22.5 -54.501 -41.5s-27.834 -43.833 -36.501 -74.5s-13 -67 -13 -109c0 -44 4.83301 -81.167 14.5 -111.5s22.834 -54.666 39.501 -72.999
s36 -31.333 58 -39s46.333 -11.5 73 -11.5c28 0 53.333 4 76 12s43.667 19.333 63 34l-22 27c-16 -12.667 -33.5 -22.667 -52.5 -30s-41.167 -11 -66.5 -11c-49.333 0 -85.666 15.833 -108.999 47.5s-35 84.167 -35 157.5zM102.001 260.999
c2.66699 62 15.333 106.333 38 133s54 40 94 40c39.333 0 69 -13.333 89 -40s30 -71 30 -133h-251zM309 539.999c21.333 0 32 11 32 33s-11 33 -33 33c-21.333 0 -32 -11 -32 -33s11 -33 33 -33zM161 539.999c21.333 0 32 11 32 33s-11 33 -33 33c-21.333 0 -32 -11 -32 -33
s11 -33 33 -33z" />
    <glyph glyph-name="igrave" unicode="&#xec;" horiz-adv-x="253" 
d="M120 0h38v459h-101v-24l63 -7v-428zM175 522l16 21l-146 105l-22 -31z" />
    <glyph glyph-name="iacute" unicode="&#xed;" horiz-adv-x="253" 
d="M120 0h38v459h-101v-24l63 -7v-428zM86 522l152 95l-22 31l-146 -105z" />
    <glyph glyph-name="icircumflex" unicode="&#xee;" horiz-adv-x="253" 
d="M120 0h38v459h-101v-24l63 -7v-428zM31 524l96 90l98 -90l18 18l-105 110h-22l-103 -110z" />
    <glyph glyph-name="idieresis" unicode="&#xef;" horiz-adv-x="253" 
d="M120 0h38v459h-101v-24l63 -7v-428zM201 540c21.333 0 32 11 32 33s-11 33 -33 33c-21.333 0 -32 -11 -32 -33s11 -33 33 -33zM53 540c21.333 0 32 11 32 33s-11 33 -33 33c-21.333 0 -32 -11 -32 -33s11 -33 33 -33z" />
    <glyph glyph-name="eth" unicode="&#xf0;" horiz-adv-x="481" 
d="M264 602c26 -25.333 47.6689 -54.833 65.002 -88.5s30.666 -73.167 39.999 -118.5c-14.667 24 -33.667 41.833 -57 53.5s-48.333 17.5 -75 17.5c-53.333 0 -95.833 -19.333 -127.5 -58s-47.5 -98.667 -47.5 -180c0 -80.667 16.167 -140 48.5 -178s75.833 -57 130.5 -57
c28 0 52.667 4.5 74 13.5s39.833 23.667 55.5 44s27.667 47.333 36 81s12.5 74.5 12.5 122.5c0 88 -11.167 161.5 -33.5 220.5s-52.833 107.5 -91.5 145.5l14 9l33 21l27 17c5.33301 3.33301 10 6 14 8l-17 25c-4 -2.66699 -7.83301 -5 -11.5 -7
s-15.834 -9.33301 -36.501 -22l-39 -24l-8 -5c-28 24.667 -68.333 51 -121 79l-14 -27c44 -24 79 -47.333 105 -70l-105 -65l18 -26zM241.002 24c-46 0 -80.833 16.332 -104.5 48.999s-35.5 85.334 -35.5 158.001c0 72 11.667 124 35 156s58 48 104 48
s80.833 -16.833 104.5 -50.5s35.5 -86.5 35.5 -158.5c0 -70.667 -11.667 -122 -35 -154s-58 -48 -104 -48z" />
    <glyph glyph-name="ntilde" unicode="&#xf1;" horiz-adv-x="485" 
d="M90 0l37.999 -0.000976562v356c28.667 24.667 55 43.5 79 56.5s48.667 19.5 74 19.5c26.667 0 46.834 -7.66699 60.501 -23s20.5 -39.666 20.5 -72.999v-336h38v343c0 40 -10.667 70.5 -32 91.5s-49.333 31.5 -84 31.5c-27.333 0 -53.5 -7 -78.5 -21
s-51.167 -34 -78.5 -60l-15 74h-22v-459zM142.999 537.999c7.33301 14 13.832 24.167 19.499 30.5s14.167 9.5 25.5 9.5c10 0 25.667 -5.66699 47 -17c24.667 -12.667 43.667 -19 57 -19c32 0 56.333 20.667 73 62l-27 12c-7.33301 -14 -13.833 -24.167 -19.5 -30.5
s-14.167 -9.5 -25.5 -9.5c-10 0 -25.667 5.66699 -47 17c-24.667 12.667 -43.667 19 -57 19c-31.333 0 -55.666 -20.667 -72.999 -62z" />
    <glyph glyph-name="ograve" unicode="&#xf2;" horiz-adv-x="481" 
d="M241 -7c54.667 0 98 19.5 130 58.5s48 98.5 48 178.5s-16.667 139.333 -50 178s-77 58 -131 58c-53.333 0 -96 -19.333 -128 -58s-48 -98.667 -48 -180c0 -80.667 16.167 -140 48.5 -178s75.833 -57 130.5 -57zM241 24c-46 0 -80.833 16.332 -104.5 48.999
s-35.5 85.334 -35.5 158.001c0 72 11.667 124 35 156s58 48 104 48s80.833 -16.833 104.5 -50.5s35.5 -86.5 35.5 -158.5c0 -70.667 -11.667 -122 -35 -154s-58 -48 -104 -48zM290 521.999l16 21l-146 105l-22 -31z" />
    <glyph glyph-name="oacute" unicode="&#xf3;" horiz-adv-x="481" 
d="M241 -7c54.667 0 98 19.5 130 58.5s48 98.5 48 178.5s-16.667 139.333 -50 178s-77 58 -131 58c-53.333 0 -96 -19.333 -128 -58s-48 -98.667 -48 -180c0 -80.667 16.167 -140 48.5 -178s75.833 -57 130.5 -57zM241 24c-46 0 -80.833 16.332 -104.5 48.999
s-35.5 85.334 -35.5 158.001c0 72 11.667 124 35 156s58 48 104 48s80.833 -16.833 104.5 -50.5s35.5 -86.5 35.5 -158.5c0 -70.667 -11.667 -122 -35 -154s-58 -48 -104 -48zM190 521.999l152 95l-22 31l-146 -105z" />
    <glyph glyph-name="ocircumflex" unicode="&#xf4;" horiz-adv-x="481" 
d="M241 -7c54.667 0 98 19.5 130 58.5s48 98.5 48 178.5s-16.667 139.333 -50 178s-77 58 -131 58c-53.333 0 -96 -19.333 -128 -58s-48 -98.667 -48 -180c0 -80.667 16.167 -140 48.5 -178s75.833 -57 130.5 -57zM241 24c-46 0 -80.833 16.332 -104.5 48.999
s-35.5 85.334 -35.5 158.001c0 72 11.667 124 35 156s58 48 104 48s80.833 -16.833 104.5 -50.5s35.5 -86.5 35.5 -158.5c0 -70.667 -11.667 -122 -35 -154s-58 -48 -104 -48zM145 523.999l96 90l98 -90l18 18l-105 110h-22l-103 -110z" />
    <glyph glyph-name="otilde" unicode="&#xf5;" horiz-adv-x="481" 
d="M241 -7c54.667 0 98 19.5 130 58.5s48 98.5 48 178.5s-16.667 139.333 -50 178s-77 58 -131 58c-53.333 0 -96 -19.333 -128 -58s-48 -98.667 -48 -180c0 -80.667 16.167 -140 48.5 -178s75.833 -57 130.5 -57zM241 24c-46 0 -80.833 16.332 -104.5 48.999
s-35.5 85.334 -35.5 158.001c0 72 11.667 124 35 156s58 48 104 48s80.833 -16.833 104.5 -50.5s35.5 -86.5 35.5 -158.5c0 -70.667 -11.667 -122 -35 -154s-58 -48 -104 -48zM143 537.999c7.33301 14 13.832 24.167 19.499 30.5s14.167 9.5 25.5 9.5
c10 0 25.667 -5.66699 47 -17c24.667 -12.667 43.667 -19 57 -19c32 0 56.333 20.667 73 62l-27 12c-7.33301 -14 -13.833 -24.167 -19.5 -30.5s-14.167 -9.5 -25.5 -9.5c-10 0 -25.667 5.66699 -47 17c-24.667 12.667 -43.667 19 -57 19
c-31.333 0 -55.666 -20.667 -72.999 -62z" />
    <glyph glyph-name="odieresis" unicode="&#xf6;" horiz-adv-x="481" 
d="M241 -7c54.667 0 98 19.5 130 58.5s48 98.5 48 178.5s-16.667 139.333 -50 178s-77 58 -131 58c-53.333 0 -96 -19.333 -128 -58s-48 -98.667 -48 -180c0 -80.667 16.167 -140 48.5 -178s75.833 -57 130.5 -57zM241 24c-46 0 -80.833 16.332 -104.5 48.999
s-35.5 85.334 -35.5 158.001c0 72 11.667 124 35 156s58 48 104 48s80.833 -16.833 104.5 -50.5s35.5 -86.5 35.5 -158.5c0 -70.667 -11.667 -122 -35 -154s-58 -48 -104 -48zM315 539.999c21.333 0 32 11 32 33s-11 33 -33 33c-21.333 0 -32 -11 -32 -33s11 -33 33 -33z
M167 539.999c21.333 0 32 11 32 33s-11 33 -33 33c-21.333 0 -32 -11 -32 -33s11 -33 33 -33z" />
    <glyph glyph-name="divide" unicode="&#xf7;" horiz-adv-x="504" 
d="M73 267h358v33h-358v-33zM252 392c10.667 0 19.834 3.83301 27.501 11.5s11.5 16.834 11.5 27.501s-3.83301 19.834 -11.5 27.501s-16.834 11.5 -27.501 11.5s-19.834 -3.83301 -27.501 -11.5s-11.5 -16.834 -11.5 -27.501s3.83301 -19.834 11.5 -27.501
s16.834 -11.5 27.501 -11.5zM252 97c10.667 0 19.834 3.83301 27.501 11.5s11.5 16.834 11.5 27.501s-3.83301 19.834 -11.5 27.501s-16.834 11.5 -27.501 11.5s-19.834 -3.83301 -27.501 -11.5s-11.5 -16.834 -11.5 -27.501s3.83301 -19.834 11.5 -27.501
s16.834 -11.5 27.501 -11.5z" />
    <glyph glyph-name="oslash" unicode="&#xf8;" horiz-adv-x="481" 
d="M374 402l50.002 76l-26 18c-4.66699 -6.66699 -11.834 -17.5 -21.501 -32.5l-24.5 -38.5c-30 27.333 -68 41 -114 41c-53.333 0 -96 -19.333 -128 -58s-48 -98.667 -48 -180c0 -77.333 16 -136.333 48 -177l-53 -81l26 -18l49 76c29.333 -23.333 65.666 -35 108.999 -35
c54.667 0 98 19.5 130 58.5s48 98.5 48 178.5c0 72.667 -15 130 -45 172zM130.002 82c-19.333 33.333 -29 83 -29 149c0 72 11.667 124 35 156s58 48 104 48c41.333 0 73 -12.333 95 -37zM354.002 370c17.333 -33.333 26 -81.333 26 -144c0 -70.667 -11.667 -122 -35 -154
s-58 -48 -104 -48c-38 0 -68.333 10.667 -91 32z" />
    <glyph glyph-name="ugrave" unicode="&#xf9;" horiz-adv-x="485" 
d="M201 -7c28 0 54.668 6.33203 80.001 18.999s51 30.334 77 53.001l15 -65h22v459h-38v-365c-28 -21.333 -54 -37.833 -78 -49.5s-49 -17.5 -75 -17.5c-26.667 0 -46.834 7.66699 -60.501 23s-20.5 39.666 -20.5 72.999v336h-38v-343
c0 -39.333 10.833 -69.666 32.5 -90.999s49.5 -32 83.5 -32zM290.001 521.999l16 21l-146 105l-22 -31z" />
    <glyph glyph-name="uacute" unicode="&#xfa;" horiz-adv-x="485" 
d="M201 -7c28 0 54.668 6.33203 80.001 18.999s51 30.334 77 53.001l15 -65h22v459h-38v-365c-28 -21.333 -54 -37.833 -78 -49.5s-49 -17.5 -75 -17.5c-26.667 0 -46.834 7.66699 -60.501 23s-20.5 39.666 -20.5 72.999v336h-38v-343
c0 -39.333 10.833 -69.666 32.5 -90.999s49.5 -32 83.5 -32zM195.001 521.999l152 95l-22 31l-146 -105z" />
    <glyph glyph-name="ucircumflex" unicode="&#xfb;" horiz-adv-x="485" 
d="M201 -7c28 0 54.668 6.33203 80.001 18.999s51 30.334 77 53.001l15 -65h22v459h-38v-365c-28 -21.333 -54 -37.833 -78 -49.5s-49 -17.5 -75 -17.5c-26.667 0 -46.834 7.66699 -60.501 23s-20.5 39.666 -20.5 72.999v336h-38v-343
c0 -39.333 10.833 -69.666 32.5 -90.999s49.5 -32 83.5 -32zM147.001 523.999l96 90l98 -90l18 18l-105 110h-22l-103 -110z" />
    <glyph glyph-name="udieresis" unicode="&#xfc;" horiz-adv-x="485" 
d="M201 -7c28 0 54.668 6.33203 80.001 18.999s51 30.334 77 53.001l15 -65h22v459h-38v-365c-28 -21.333 -54 -37.833 -78 -49.5s-49 -17.5 -75 -17.5c-26.667 0 -46.834 7.66699 -60.501 23s-20.5 39.666 -20.5 72.999v336h-38v-343
c0 -39.333 10.833 -69.666 32.5 -90.999s49.5 -32 83.5 -32zM317.001 539.999c21.333 0 32 11 32 33s-11 33 -33 33c-21.333 0 -32 -11 -32 -33s11 -33 33 -33zM169.001 539.999c21.333 0 32 11 32 33s-11 33 -33 33c-21.333 0 -32 -11 -32 -33s11 -33 33 -33z" />
    <glyph glyph-name="yacute" unicode="&#xfd;" horiz-adv-x="431" 
d="M70 -209c24 8 44.333 16.501 61 25.501s31.167 20 43.5 33s23.666 29.5 33.999 49.5s20.166 45.333 29.499 76l151 484h-39l-95 -314c-2 -7.33301 -7.33301 -25 -16 -53c-10.667 -34 -17.667 -58 -21 -72h-1c-4 17.333 -8.66699 35.666 -14 54.999
s-12.333 42.666 -21 69.999l-100 314h-40l147 -459h21c-8 -28 -16.167 -51.667 -24.5 -71s-18.166 -35.666 -29.499 -48.999s-24.666 -24.833 -39.999 -34.5s-34.333 -18.5 -57 -26.5zM175 522.001l152 95l-22 31l-146 -105z" />
    <glyph glyph-name="thorn" unicode="&#xfe;" horiz-adv-x="488" 
d="M90 -207l38.001 0.000976562v269c18.667 -20.667 39.167 -37.334 61.5 -50.001s47.833 -19 76.5 -19c51.333 0 90.833 19.5 118.5 58.5s41.5 97.5 41.5 175.5c0 79.333 -13.667 139 -41 179s-65.333 60 -114 60c-27.333 0 -53.333 -7.16699 -78 -21.5
s-46.334 -31.833 -65.001 -52.5v316h-38v-915zM264.001 27.001c-26 0 -49.833 5.66895 -71.5 17.002s-43.167 28 -64.5 50v267v0c25.333 22.667 48.333 40.167 69 52.5s44 18.5 70 18.5c40 0 70 -15.833 90 -47.5s30 -85.834 30 -162.501
c0 -66.667 -10.5 -115.834 -31.5 -147.501s-51.5 -47.5 -91.5 -47.5z" />
    <glyph glyph-name="ydieresis" unicode="&#xff;" horiz-adv-x="431" 
d="M70 -209c24 8 44.333 16.501 61 25.501s31.167 20 43.5 33s23.666 29.5 33.999 49.5s20.166 45.333 29.499 76l151 484h-39l-95 -314c-2 -7.33301 -7.33301 -25 -16 -53c-10.667 -34 -17.667 -58 -21 -72h-1c-4 17.333 -8.66699 35.666 -14 54.999
s-12.333 42.666 -21 69.999l-100 314h-40l147 -459h21c-8 -28 -16.167 -51.667 -24.5 -71s-18.166 -35.666 -29.499 -48.999s-24.666 -24.833 -39.999 -34.5s-34.333 -18.5 -57 -26.5zM290 540.001c21.333 0 32 11 32 33s-11 33 -33 33c-21.333 0 -32 -11 -32 -33
s11 -33 33 -33zM142 540.001c21.333 0 32 11 32 33s-11 33 -33 33c-21.333 0 -32 -11 -32 -33s11 -33 33 -33z" />
    <glyph glyph-name="OE" unicode="&#x152;" horiz-adv-x="829" 
d="M339 0h439v33h-300v312h236v33h-236v274h289v33h-430c-96 0 -164.5 -25.333 -205.5 -76s-61.5 -135 -61.5 -253c0 -64 4.66699 -118.333 14 -163s24.333 -81.167 45 -109.5s48.167 -49.333 82.5 -63s76.833 -20.5 127.5 -20.5zM334 33
c-44 0 -80.332 6.16699 -108.999 18.5s-51.334 31.166 -68.001 56.499s-28.5 57.833 -35.5 97.5s-10.5 88.834 -10.5 147.501c0 54 3.5 99.5 10.5 136.5s18.833 67.5 35.5 91.5c33.333 47.333 92 71 176 71h105v-619h-104z" />
    <glyph glyph-name="oe" unicode="&#x153;" horiz-adv-x="770" 
d="M399 113c12.667 -42.667 33.3311 -73.334 61.998 -92.001s63 -28 103 -28c28 0 53.333 4 76 12s43.667 19.333 63 34l-22 27c-16 -12.667 -33.5 -22.667 -52.5 -30s-41.167 -11 -66.5 -11c-49.333 0 -85.666 15.833 -108.999 47.5s-35 84.167 -35 157.5h291v16
c0 146.667 -52.667 220 -158 220c-36.667 0 -68.167 -9.66699 -94.5 -29s-45.833 -50 -58.5 -92c-13.333 41.333 -33.666 71.833 -60.999 91.5s-60.333 29.5 -99 29.5c-53.333 0 -96 -19.333 -128 -58s-48 -98.667 -48 -180c0 -80.667 16.167 -140 48.5 -178
s75.833 -57 130.5 -57c38.667 0 71.5 9.83301 98.5 29.5s46.833 49.834 59.5 90.501zM240.997 24c-46 0 -80.833 16.332 -104.5 48.999s-35.5 85.334 -35.5 158.001c0 72 11.667 124 35 156s58 48 104 48s80.833 -16.833 104.5 -50.5s35.5 -86.5 35.5 -158.5
c0 -70.667 -11.667 -122 -35 -154s-58 -48 -104 -48zM418.997 260.999c2.66699 62 15.333 106.333 38 133s54 40 94 40c39.333 0 69 -13.333 89 -40s30 -71 30 -133h-251z" />
    <glyph glyph-name="Scaron" unicode="&#x160;" horiz-adv-x="499" 
d="M234 -7c64.667 0 113.169 16.501 145.502 49.501s48.5 76.167 48.5 129.5c0 29.333 -3.83301 54.166 -11.5 74.499s-18.834 38 -33.501 53s-32.167 28.5 -52.5 40.5s-46.833 25 -79.5 39c-51.333 22.667 -87 43.667 -107 63s-30 49.666 -30 90.999
c0 40.667 12.667 71.834 38 93.501s57 32.5 95 32.5c52 0 97.333 -14 136 -42l19 30c-22 14.667 -44.833 25.834 -68.5 33.501s-52.5 11.5 -86.5 11.5c-50.667 0 -92 -14.333 -124 -43s-48 -67.667 -48 -117c0 -26.667 4 -49.834 12 -69.501s19.167 -36.167 33.5 -49.5
s30.5 -25 48.5 -35s41 -21 69 -33c56 -24 95 -47.167 117 -69.5s33 -56.833 33 -103.5s-12.667 -82.667 -38 -108s-64.333 -38 -117 -38c-36.667 0 -69.834 7.33301 -99.501 22s-55.5 34.667 -77.5 60l-25 -27c24 -26 53.333 -47.167 88 -63.5s73 -24.5 115 -24.5z
M232.002 741.001h22l103 110l-18 18l-96 -90l-98 90l-18 -18z" />
    <glyph glyph-name="scaron" unicode="&#x161;" horiz-adv-x="390" 
d="M184 -7c44 0 79.335 10.8311 106.002 32.498s40 52.5 40 92.5c0 21.333 -3.33301 39.5 -10 54.5s-16.334 27.833 -29.001 38.5c-17.333 15.333 -50.666 32 -99.999 50c-35.333 12.667 -59.5 25.334 -72.5 38.001s-19.5 32.334 -19.5 59.001
c0 24.667 8.16699 43.5 24.5 56.5s38.166 19.5 65.499 19.5c22.667 0 42.167 -2.5 58.5 -7.5s33.166 -12.5 50.499 -22.5l15 29c-16.667 10 -34.834 18 -54.501 24s-42.5 9 -68.5 9c-40 0 -71.333 -10.167 -94 -30.5s-34 -46.5 -34 -78.5c0 -35.333 10.167 -62.5 30.5 -81.5
s50.5 -35.167 90.5 -48.5c42 -14 70.667 -28.5 86 -43.5s23 -37.167 23 -66.5c0 -28.667 -9.16699 -51.167 -27.5 -67.5s-45.166 -24.5 -80.499 -24.5c-26 0 -48.667 3.83301 -68 11.5s-38.333 18.5 -57 32.5l-19 -26c18.667 -15.333 40 -27.5 64 -36.5
s50.667 -13.5 80 -13.5zM173.002 529.998h22l103 110l-18 18l-96 -90l-98 90l-18 -18z" />
    <glyph glyph-name="Ydieresis" unicode="&#x178;" horiz-adv-x="538" 
d="M245 0h40v264l198 421h-41l-142 -304c-8.66699 -19.333 -15 -34.166 -19 -44.499l-14 -37.5l-1 -2c-4 12 -8.33301 23.667 -13 35s-12 27.666 -22 48.999l-145 304h-42l201 -420v-265zM342 751c21.333 0 32 11 32 33s-11 33 -33 33c-21.333 0 -32 -11 -32 -33
s11 -33 33 -33zM194 751c21.333 0 32 11 32 33s-11 33 -33 33c-21.333 0 -32 -11 -32 -33s11 -33 33 -33z" />
    <glyph glyph-name="florin" unicode="&#x192;" horiz-adv-x="369" 
d="M142 396l-60.001 -603h39l61 603h120v33h-117l14 141c3.33301 32.667 11 55.5 23 68.5s29.667 19.5 53 19.5c14 0 26 -1.83301 36 -5.5s21.333 -9.5 34 -17.5l17 29c-13.333 9.33301 -26.833 16.333 -40.5 21s-29.167 7 -46.5 7c-33.333 0 -59.666 -9.66699 -78.999 -29
s-31.333 -50 -36 -92l-15 -142h-80v-33h77z" />
    <glyph glyph-name="circumflex" unicode="&#x2c6;" horiz-adv-x="541" 
d="M175 524l96 90l98 -90l18 18l-105 110h-22l-103 -110z" />
    <glyph glyph-name="tilde" unicode="&#x2dc;" horiz-adv-x="541" 
d="M173 538c7.33301 14 13.832 24.167 19.499 30.5s14.167 9.5 25.5 9.5c10 0 25.667 -5.66699 47 -17c24.667 -12.667 43.667 -19 57 -19c32 0 56.333 20.667 73 62l-27 12c-7.33301 -14 -13.833 -24.167 -19.5 -30.5s-14.167 -9.5 -25.5 -9.5
c-10 0 -25.667 5.66699 -47 17c-24.667 12.667 -43.667 19 -57 19c-31.333 0 -55.666 -20.667 -72.999 -62z" />
    <glyph glyph-name="endash" unicode="&#x2013;" horiz-adv-x="455" 
d="M58 264h339v33h-339v-33z" />
    <glyph glyph-name="emdash" unicode="&#x2014;" horiz-adv-x="645" 
d="M58 264h529v33h-529v-33z" />
    <glyph glyph-name="quoteleft" unicode="&#x2018;" horiz-adv-x="195" 
d="M98 528c10 0 18.668 3.5 26.001 10.5s11 16.167 11 27.5c0 10 -3.83301 18.667 -11.5 26s-17.5 11.333 -29.5 12c0 15.333 4.16699 28.5 12.5 39.5s19.166 19.5 32.499 25.5l-9 21c-49.333 -15.333 -74 -52 -74 -110c0 -16 4 -28.667 12 -38s18 -14 30 -14z" />
    <glyph glyph-name="quoteright" unicode="&#x2019;" horiz-adv-x="195" 
d="M65 526c49.333 14.667 74.001 51.333 74.001 110c0 16 -3.83301 28.667 -11.5 38s-17.834 14 -30.501 14c-10 0 -18.667 -3.66699 -26 -11s-11 -16.333 -11 -27c0 -10 3.83301 -18.667 11.5 -26s17.5 -11.333 29.5 -12c0 -15.333 -4 -28.5 -12 -39.5s-19 -19.5 -33 -25.5
z" />
    <glyph glyph-name="quotesinglbase" unicode="&#x201a;" horiz-adv-x="195" 
d="M65 -88c49.333 14.667 74 51 74 109c0 16 -4 28.833 -12 38.5s-18 14.5 -30 14.5c-10 0 -18.667 -3.66699 -26 -11s-11 -16.333 -11 -27c0 -10 3.83301 -18.667 11.5 -26s17.5 -11.333 29.5 -12c0 -15.333 -4 -28.5 -12 -39.5s-19 -19.5 -33 -25.5z" />
    <glyph glyph-name="quotedblleft" unicode="&#x201c;" horiz-adv-x="335" 
d="M98 528c10 0 18.668 3.5 26.001 10.5s11 16.167 11 27.5c0 10 -3.83301 18.667 -11.5 26s-17.5 11.333 -29.5 12c0 15.333 4.16699 28.5 12.5 39.5s19.166 19.5 32.499 25.5l-9 21c-49.333 -15.333 -74 -52 -74 -110c0 -16 4 -28.667 12 -38s18 -14 30 -14zM238.001 528
c10 0 18.666 3.5 25.999 10.5s11 16.167 11 27.5c0 10 -3.83301 18.667 -11.5 26s-17.5 11.333 -29.5 12c0 15.333 4.16699 28.5 12.5 39.5s18.833 19.5 31.5 25.5l-8 21c-49.333 -15.333 -74 -52 -74 -110c0 -16 3.83301 -28.667 11.5 -38s17.834 -14 30.501 -14z" />
    <glyph glyph-name="quotedblright" unicode="&#x201d;" horiz-adv-x="335" 
d="M65 526c49.333 14.667 74.001 51.333 74.001 110c0 16 -3.83301 28.667 -11.5 38s-17.834 14 -30.501 14c-10 0 -18.667 -3.66699 -26 -11s-11 -16.333 -11 -27c0 -10 3.83301 -18.667 11.5 -26s17.5 -11.333 29.5 -12c0 -15.333 -4 -28.5 -12 -39.5s-19 -19.5 -33 -25.5
zM205.001 525.999c48.667 14.667 72.999 51.333 72.999 110c0 16 -3.83301 28.667 -11.5 38s-17.5 14 -29.5 14c-10.667 0 -19.5 -3.66699 -26.5 -11s-10.5 -16.333 -10.5 -27c0 -10 3.66699 -18.667 11 -26s17.333 -11.333 30 -12c0 -15.333 -4.16699 -28.5 -12.5 -39.5
s-19.166 -19.5 -32.499 -25.5z" />
    <glyph glyph-name="quotedblbase" unicode="&#x201e;" horiz-adv-x="335" 
d="M65 -88c49.333 14.667 74 51 74 109c0 16 -4 28.833 -12 38.5s-18 14.5 -30 14.5c-10 0 -18.667 -3.66699 -26 -11s-11 -16.333 -11 -27c0 -10 3.83301 -18.667 11.5 -26s17.5 -11.333 29.5 -12c0 -15.333 -4 -28.5 -12 -39.5s-19 -19.5 -33 -25.5zM205 -88
c48.667 14.667 72.999 51 72.999 109c0 16.667 -3.83301 29.667 -11.5 39s-17.5 14 -29.5 14c-10.667 0 -19.5 -3.66699 -26.5 -11s-10.5 -16.333 -10.5 -27c0 -10 3.66699 -18.667 11 -26s17.333 -11.333 30 -12c0 -15.333 -4.16699 -28.5 -12.5 -39.5
s-19.166 -19.5 -32.499 -25.5z" />
    <glyph glyph-name="dagger" unicode="&#x2020;" horiz-adv-x="338" 
d="M150 262h38v263h99v33h-99v127h-38v-127h-99v-33h99v-263z" />
    <glyph glyph-name="daggerdbl" unicode="&#x2021;" horiz-adv-x="338" 
d="M150 262h38v127h99v33h-99v103h99v33h-99v127h-38v-127h-99v-33h99v-103h-99v-33h99v-127z" />
    <glyph glyph-name="bullet" unicode="&#x2022;" horiz-adv-x="242" 
d="M121 248c20 0 36.167 7.16699 48.5 21.5s18.5 31.5 18.5 51.5c0 20.667 -6.16699 38 -18.5 52s-28.5 21 -48.5 21s-36.167 -7 -48.5 -21s-18.5 -31.333 -18.5 -52c0 -20 6.16699 -37.167 18.5 -51.5s28.5 -21.5 48.5 -21.5z" />
    <glyph glyph-name="ellipsis" unicode="&#x2026;" horiz-adv-x="578" 
d="M472 -6c10.667 0 19.834 3.83301 27.501 11.5s11.5 16.834 11.5 27.501s-3.83301 19.834 -11.5 27.501s-16.834 11.5 -27.501 11.5s-19.834 -3.83301 -27.501 -11.5s-11.5 -16.834 -11.5 -27.501s3.83301 -19.834 11.5 -27.501s16.834 -11.5 27.501 -11.5zM289 -6
c10.667 0 19.834 3.83301 27.501 11.5s11.5 16.834 11.5 27.501s-3.83301 19.834 -11.5 27.501s-16.834 11.5 -27.501 11.5s-19.834 -3.83301 -27.501 -11.5s-11.5 -16.834 -11.5 -27.501s3.83301 -19.834 11.5 -27.501s16.834 -11.5 27.501 -11.5zM106 -6
c10.667 0 19.834 3.83301 27.501 11.5s11.5 16.834 11.5 27.501s-3.83301 19.834 -11.5 27.501s-16.834 11.5 -27.501 11.5s-19.834 -3.83301 -27.501 -11.5s-11.5 -16.834 -11.5 -27.501s3.83301 -19.834 11.5 -27.501s16.834 -11.5 27.501 -11.5z" />
    <glyph glyph-name="perthousand" unicode="&#x2030;" horiz-adv-x="1139" 
d="M198 299c44 0 78.667 15.333 104 46s38 71.667 38 123c0 54.667 -13.333 97.334 -40 128.001s-62 46 -106 46c-43.333 0 -77.833 -15.333 -103.5 -46s-38.5 -72.334 -38.5 -125.001s13 -94.5 39 -125.5s61.667 -46.5 107 -46.5zM593 -7c44 0 78.667 15.333 104 46
s38 71.667 38 123c0 54.667 -13.333 97.334 -40 128.001s-62 46 -106 46c-43.333 0 -77.833 -15.333 -103.5 -46s-38.5 -72.334 -38.5 -125.001s13 -94.5 39 -125.5s61.667 -46.5 107 -46.5zM945 -7c44 0 78.667 15.333 104 46s38 71.667 38 123
c0 54.667 -13.333 97.334 -40 128.001s-62 46 -106 46c-43.333 0 -77.833 -15.333 -103.5 -46s-38.5 -72.334 -38.5 -125.001s13 -94.5 39 -125.5s61.667 -46.5 107 -46.5zM591 25c-70 0 -105 47.667 -105 143c0 90.667 34.667 136 104 136c70.667 0 106 -48.333 106 -145
c0 -89.333 -35 -134 -105 -134zM196 331c-70 0 -105 47.667 -105 143c0 90.667 34.667 136 104 136c70.667 0 106 -48.333 106 -145c0 -89.333 -35 -134 -105 -134zM943 25c-70 0 -105 47.667 -105 143c0 90.667 34.667 136 104 136c70.667 0 106 -48.333 106 -145
c0 -89.333 -35 -134 -105 -134zM184 0h41l378 635h-41z" />
    <glyph glyph-name="guilsinglleft" unicode="&#x2039;" horiz-adv-x="275" 
d="M184 52l29 20l-114 172l114 174l-29 20l-127 -194z" />
    <glyph glyph-name="guilsinglright" unicode="&#x203a;" horiz-adv-x="275" 
d="M91 52l127 194l-127 192l-29 -20l114 -172l-114 -174z" />
    <glyph glyph-name="trademark" unicode="&#x2122;" horiz-adv-x="694" 
d="M586 561l0.000976562 -233h37v357h-56l-66 -194c-4.66699 -13.333 -8 -24.5 -10 -33.5s-3.66699 -18.833 -5 -29.5l-1 -6h-1c-2.66699 22 -8.33398 45 -17.001 69l-66 194h-55v-357h35v233c0 21.333 -0.666992 50 -2 86l-1 11h1l5 -21c6.66699 -28.667 13.667 -53 21 -73
l61 -167h34l61 170l16.5 51c5 16 8.5 28.667 10.5 38c0 -2.66699 -0.333008 -10 -1 -22c-0.666992 -26 -1 -50.333 -1 -73zM146.001 328h37v326h90v31h-217v-31h90v-326z" />
    </font>
</defs>
</svg>
